{
    "asset" : {
        "generator" : "Khronos glTF Blender I/O v1.8.19",
        "version" : "2.0"
    },
    "extensionsUsed" : [
        "KHR_materials_transmission"
    ],
    "scene" : 0,
    "scenes" : [
        {
            "name" : "Scene",
            "nodes" : [
                0
            ]
        }
    ],
    "nodes" : [
        {
            "mesh" : 0,
            "name" : "Cube",
            "scale" : [
                6.937750816345215,
                11.498483657836914,
                13.87550163269043
            ],
            "translation" : [
                -39.21151351928711,
                6.429256439208984,
                -166.72731018066406
            ]
        }
    ],
    "materials" : [
        {
            "doubleSided" : true,
            "name" : "Material.010",
            "pbrMetallicRoughness" : {
                "baseColorFactor" : [
                    0.800000011920929,
                    0.800000011920929,
                    0.800000011920929,
                    1
                ],
                "metallicFactor" : 0,
                "roughnessFactor" : 0.4000000059604645
            }
        },
        {
            "doubleSided" : true,
            "name" : "Material.012",
            "pbrMetallicRoughness" : {
                "baseColorFactor" : [
                    0.09279518574476242,
                    0.2290770262479782,
                    0.8000000715255737,
                    1
                ],
                "metallicFactor" : 0,
                "roughnessFactor" : 0.5
            }
        },
        {
            "doubleSided" : true,
            "name" : "Material.013",
            "pbrMetallicRoughness" : {
                "baseColorFactor" : [
                    0.27386289834976196,
                    0.8000000715255737,
                    0.7324714660644531,
                    1
                ],
                "metallicFactor" : 0,
                "roughnessFactor" : 0.5
            }
        },
        {
            "alphaMode" : "BLEND",
            "doubleSided" : true,
            "name" : "Material.014",
            "pbrMetallicRoughness" : {
                "baseColorFactor" : [
                    1,
                    1,
                    1,
                    0.3499999940395355
                ]
            }
        },
        {
            "alphaMode" : "BLEND",
            "doubleSided" : true,
            "extensions" : {
                "KHR_materials_transmission" : {
                    "transmissionFactor" : 1
                }
            },
            "name" : "Material.015",
            "pbrMetallicRoughness" : {
                "baseColorFactor" : [
                    1,
                    1,
                    1,
                    0.3499999940395355
                ]
            }
        }
    ],
    "meshes" : [
        {
            "name" : "Cube.003",
            "primitives" : [
                {
                    "attributes" : {
                        "POSITION" : 0,
                        "NORMAL" : 1,
                        "TEXCOORD_0" : 2
                    },
                    "indices" : 3,
                    "material" : 0
                },
                {
                    "attributes" : {
                        "POSITION" : 4,
                        "NORMAL" : 5,
                        "TEXCOORD_0" : 6
                    },
                    "indices" : 7,
                    "material" : 1
                },
                {
                    "attributes" : {
                        "POSITION" : 8,
                        "NORMAL" : 9,
                        "TEXCOORD_0" : 10
                    },
                    "indices" : 11,
                    "material" : 2
                },
                {
                    "attributes" : {
                        "POSITION" : 12,
                        "NORMAL" : 13,
                        "TEXCOORD_0" : 14
                    },
                    "indices" : 15,
                    "material" : 3
                },
                {
                    "attributes" : {
                        "POSITION" : 16,
                        "NORMAL" : 17,
                        "TEXCOORD_0" : 18
                    },
                    "indices" : 19,
                    "material" : 4
                }
            ]
        }
    ],
    "accessors" : [
        {
            "bufferView" : 0,
            "componentType" : 5126,
            "count" : 778,
            "max" : [
                1.2480472326278687,
                1.6902952194213867,
                1
            ],
            "min" : [
                -1,
                -1,
                -1
            ],
            "type" : "VEC3"
        },
        {
            "bufferView" : 1,
            "componentType" : 5126,
            "count" : 778,
            "type" : "VEC3"
        },
        {
            "bufferView" : 2,
            "componentType" : 5126,
            "count" : 778,
            "type" : "VEC2"
        },
        {
            "bufferView" : 3,
            "componentType" : 5123,
            "count" : 1320,
            "type" : "SCALAR"
        },
        {
            "bufferView" : 4,
            "componentType" : 5126,
            "count" : 103,
            "max" : [
                1.2480472326278687,
                0.7208458781242371,
                1
            ],
            "min" : [
                1.0853813886642456,
                0.36241787672042847,
                -1
            ],
            "type" : "VEC3"
        },
        {
            "bufferView" : 5,
            "componentType" : 5126,
            "count" : 103,
            "type" : "VEC3"
        },
        {
            "bufferView" : 6,
            "componentType" : 5126,
            "count" : 103,
            "type" : "VEC2"
        },
        {
            "bufferView" : 7,
            "componentType" : 5123,
            "count" : 126,
            "type" : "SCALAR"
        },
        {
            "bufferView" : 8,
            "componentType" : 5126,
            "count" : 48,
            "max" : [
                0.3288111090660095,
                1.988287329673767,
                0.17332622408866882
            ],
            "min" : [
                -0.3782331049442291,
                1.5197809934616089,
                -0.26102185249328613
            ],
            "type" : "VEC3"
        },
        {
            "bufferView" : 9,
            "componentType" : 5126,
            "count" : 48,
            "type" : "VEC3"
        },
        {
            "bufferView" : 10,
            "componentType" : 5126,
            "count" : 48,
            "type" : "VEC2"
        },
        {
            "bufferView" : 11,
            "componentType" : 5123,
            "count" : 48,
            "type" : "SCALAR"
        },
        {
            "bufferView" : 12,
            "componentType" : 5126,
            "count" : 42,
            "max" : [
                1,
                0.2718726396560669,
                0.30021220445632935
            ],
            "min" : [
                0.6556300520896912,
                -1,
                -1
            ],
            "type" : "VEC3"
        },
        {
            "bufferView" : 13,
            "componentType" : 5126,
            "count" : 42,
            "type" : "VEC3"
        },
        {
            "bufferView" : 14,
            "componentType" : 5126,
            "count" : 42,
            "type" : "VEC2"
        },
        {
            "bufferView" : 15,
            "componentType" : 5123,
            "count" : 54,
            "type" : "SCALAR"
        },
        {
            "bufferView" : 16,
            "componentType" : 5126,
            "count" : 6,
            "max" : [
                1,
                0.2718726396560669,
                1
            ],
            "min" : [
                1,
                -1,
                0.30021220445632935
            ],
            "type" : "VEC3"
        },
        {
            "bufferView" : 17,
            "componentType" : 5126,
            "count" : 6,
            "type" : "VEC3"
        },
        {
            "bufferView" : 18,
            "componentType" : 5126,
            "count" : 6,
            "type" : "VEC2"
        },
        {
            "bufferView" : 19,
            "componentType" : 5123,
            "count" : 12,
            "type" : "SCALAR"
        }
    ],
    "bufferViews" : [
        {
            "buffer" : 0,
            "byteLength" : 9336,
            "byteOffset" : 0
        },
        {
            "buffer" : 0,
            "byteLength" : 9336,
            "byteOffset" : 9336
        },
        {
            "buffer" : 0,
            "byteLength" : 6224,
            "byteOffset" : 18672
        },
        {
            "buffer" : 0,
            "byteLength" : 2640,
            "byteOffset" : 24896
        },
        {
            "buffer" : 0,
            "byteLength" : 1236,
            "byteOffset" : 27536
        },
        {
            "buffer" : 0,
            "byteLength" : 1236,
            "byteOffset" : 28772
        },
        {
            "buffer" : 0,
            "byteLength" : 824,
            "byteOffset" : 30008
        },
        {
            "buffer" : 0,
            "byteLength" : 252,
            "byteOffset" : 30832
        },
        {
            "buffer" : 0,
            "byteLength" : 576,
            "byteOffset" : 31084
        },
        {
            "buffer" : 0,
            "byteLength" : 576,
            "byteOffset" : 31660
        },
        {
            "buffer" : 0,
            "byteLength" : 384,
            "byteOffset" : 32236
        },
        {
            "buffer" : 0,
            "byteLength" : 96,
            "byteOffset" : 32620
        },
        {
            "buffer" : 0,
            "byteLength" : 504,
            "byteOffset" : 32716
        },
        {
            "buffer" : 0,
            "byteLength" : 504,
            "byteOffset" : 33220
        },
        {
            "buffer" : 0,
            "byteLength" : 336,
            "byteOffset" : 33724
        },
        {
            "buffer" : 0,
            "byteLength" : 108,
            "byteOffset" : 34060
        },
        {
            "buffer" : 0,
            "byteLength" : 72,
            "byteOffset" : 34168
        },
        {
            "buffer" : 0,
            "byteLength" : 72,
            "byteOffset" : 34240
        },
        {
            "buffer" : 0,
            "byteLength" : 48,
            "byteOffset" : 34312
        },
        {
            "buffer" : 0,
            "byteLength" : 24,
            "byteOffset" : 34360
        }
    ],
    "buffers" : [
        {
            "byteLength" : 34384,
            "uri" : "data:application/octet-stream;base64,"
        }
    ]
}
