{
    "asset" : {
        "generator" : "Khronos glTF Blender I/O v1.8.19",
        "version" : "2.0"
    },
    "scene" : 0,
    "scenes" : [
        {
            "name" : "Scene",
            "nodes" : [
                0,
                1,
                2,
                3,
                4,
                5
            ]
        }
    ],
    "nodes" : [
        {
            "mesh" : 0,
            "name" : "Icosphere.002",
            "scale" : [
                11.84002685546875,
                11.84002685546875,
                17.068946838378906
            ],
            "translation" : [
                -36.75282287597656,
                159.11509704589844,
                214.21881103515625
            ]
        },
        {
            "mesh" : 1,
            "name" : "Icosphere.001",
            "rotation" : [
                0,
                -1,
                0,
                4.371138828673793e-08
            ],
            "scale" : [
                8.962861061096191,
                8.962861061096191,
                12.921136856079102
            ],
            "translation" : [
                -71.95269775390625,
                132.2742919921875,
                -169.1479034423828
            ]
        },
        {
            "mesh" : 2,
            "name" : "Icosphere.005",
            "scale" : [
                6.285555839538574,
                6.285555839538574,
                6.285555839538574
            ],
            "translation" : [
                50.81524658203125,
                143.63755798339844,
                1.575648307800293
            ]
        },
        {
            "mesh" : 3,
            "name" : "Icosphere.003",
            "rotation" : [
                0,
                0,
                -1,
                -1.6292068494294654e-07
            ],
            "scale" : [
                8.62287712097168,
                8.62287712097168,
                8.62287712097168
            ],
            "translation" : [
                -4.5498046875,
                203.28399658203125,
                -127.66332244873047
            ]
        },
        {
            "mesh" : 4,
            "name" : "Icosphere.004",
            "rotation" : [
                0,
                0,
                0.7071093916893005,
                -0.7071041464805603
            ],
            "scale" : [
                8.024760246276855,
                8.024760246276855,
                8.024760246276855
            ],
            "translation" : [
                -57.48170471191406,
                228.4638671875,
                38.23116683959961
            ]
        },
        {
            "mesh" : 5,
            "name" : "Icosphere.006",
            "rotation" : [
                -0.7071068286895752,
                -0.7071068286895752,
                0,
                3.0908619663705394e-08
            ],
            "scale" : [
                7.626900672912598,
                7.626900672912598,
                10.9951753616333
            ],
            "translation" : [
                -120.3083724975586,
                132.2742919921875,
                -68.3110580444336
            ]
        }
    ],
    "materials" : [
        {
            "doubleSided" : true,
            "name" : "Material.003",
            "pbrMetallicRoughness" : {
                "baseColorFactor" : [
                    0.800000011920929,
                    0.800000011920929,
                    0.800000011920929,
                    1
                ],
                "metallicFactor" : 0,
                "roughnessFactor" : 0.5
            }
        },
        {
            "doubleSided" : true,
            "name" : "Material.005",
            "pbrMetallicRoughness" : {
                "baseColorFactor" : [
                    0.800000011920929,
                    0.800000011920929,
                    0.800000011920929,
                    1
                ],
                "metallicFactor" : 0,
                "roughnessFactor" : 0.5
            }
        }
    ],
    "meshes" : [
        {
            "name" : "Icosphere.011",
            "primitives" : [
                {
                    "attributes" : {
                        "POSITION" : 0,
                        "NORMAL" : 1,
                        "TEXCOORD_0" : 2
                    },
                    "indices" : 3,
                    "material" : 0
                }
            ]
        },
        {
            "name" : "Icosphere.004",
            "primitives" : [
                {
                    "attributes" : {
                        "POSITION" : 4,
                        "NORMAL" : 5,
                        "TEXCOORD_0" : 6
                    },
                    "indices" : 3,
                    "material" : 0
                }
            ]
        },
        {
            "name" : "Icosphere.013",
            "primitives" : [
                {
                    "attributes" : {
                        "POSITION" : 7,
                        "NORMAL" : 8,
                        "TEXCOORD_0" : 9
                    },
                    "indices" : 10,
                    "material" : 1
                }
            ]
        },
        {
            "name" : "Icosphere.014",
            "primitives" : [
                {
                    "attributes" : {
                        "POSITION" : 11,
                        "NORMAL" : 12,
                        "TEXCOORD_0" : 13
                    },
                    "indices" : 10,
                    "material" : 1
                }
            ]
        },
        {
            "name" : "Icosphere.015",
            "primitives" : [
                {
                    "attributes" : {
                        "POSITION" : 14,
                        "NORMAL" : 15,
                        "TEXCOORD_0" : 16
                    },
                    "indices" : 10,
                    "material" : 1
                }
            ]
        },
        {
            "name" : "Icosphere.016",
            "primitives" : [
                {
                    "attributes" : {
                        "POSITION" : 17,
                        "NORMAL" : 18,
                        "TEXCOORD_0" : 19
                    },
                    "indices" : 3,
                    "material" : 0
                }
            ]
        }
    ],
    "accessors" : [
        {
            "bufferView" : 0,
            "componentType" : 5126,
            "count" : 960,
            "max" : [
                2.3751118183135986,
                3.877732276916504,
                1.571710467338562
            ],
            "min" : [
                -2.5402748584747314,
                -2.8478803634643555,
                -4.368430137634277
            ],
            "type" : "VEC3"
        },
        {
            "bufferView" : 1,
            "componentType" : 5126,
            "count" : 960,
            "type" : "VEC3"
        },
        {
            "bufferView" : 2,
            "componentType" : 5126,
            "count" : 960,
            "type" : "VEC2"
        },
        {
            "bufferView" : 3,
            "componentType" : 5123,
            "count" : 960,
            "type" : "SCALAR"
        },
        {
            "bufferView" : 4,
            "componentType" : 5126,
            "count" : 960,
            "max" : [
                2.3751118183135986,
                3.877732276916504,
                1.571710467338562
            ],
            "min" : [
                -2.5402748584747314,
                -2.8478803634643555,
                -4.368430137634277
            ],
            "type" : "VEC3"
        },
        {
            "bufferView" : 5,
            "componentType" : 5126,
            "count" : 960,
            "type" : "VEC3"
        },
        {
            "bufferView" : 6,
            "componentType" : 5126,
            "count" : 960,
            "type" : "VEC2"
        },
        {
            "bufferView" : 7,
            "componentType" : 5126,
            "count" : 960,
            "max" : [
                3.2896041870117188,
                2.5475544929504395,
                11.673516273498535
            ],
            "min" : [
                -2.8095264434814453,
                -4.715653896331787,
                2.896491050720215
            ],
            "type" : "VEC3"
        },
        {
            "bufferView" : 8,
            "componentType" : 5126,
            "count" : 960,
            "type" : "VEC3"
        },
        {
            "bufferView" : 9,
            "componentType" : 5126,
            "count" : 960,
            "type" : "VEC2"
        },
        {
            "bufferView" : 10,
            "componentType" : 5123,
            "count" : 960,
            "type" : "SCALAR"
        },
        {
            "bufferView" : 11,
            "componentType" : 5126,
            "count" : 960,
            "max" : [
                3.2896041870117188,
                2.5475544929504395,
                11.673516273498535
            ],
            "min" : [
                -2.8095264434814453,
                -4.715653896331787,
                2.896491050720215
            ],
            "type" : "VEC3"
        },
        {
            "bufferView" : 12,
            "componentType" : 5126,
            "count" : 960,
            "type" : "VEC3"
        },
        {
            "bufferView" : 13,
            "componentType" : 5126,
            "count" : 960,
            "type" : "VEC2"
        },
        {
            "bufferView" : 14,
            "componentType" : 5126,
            "count" : 960,
            "max" : [
                3.2896041870117188,
                2.5475544929504395,
                11.673516273498535
            ],
            "min" : [
                -2.8095264434814453,
                -4.715653896331787,
                2.896491050720215
            ],
            "type" : "VEC3"
        },
        {
            "bufferView" : 15,
            "componentType" : 5126,
            "count" : 960,
            "type" : "VEC3"
        },
        {
            "bufferView" : 16,
            "componentType" : 5126,
            "count" : 960,
            "type" : "VEC2"
        },
        {
            "bufferView" : 17,
            "componentType" : 5126,
            "count" : 960,
            "max" : [
                2.3751118183135986,
                3.877732276916504,
                1.571710467338562
            ],
            "min" : [
                -2.5402748584747314,
                -2.8478803634643555,
                -4.368430137634277
            ],
            "type" : "VEC3"
        },
        {
            "bufferView" : 18,
            "componentType" : 5126,
            "count" : 960,
            "type" : "VEC3"
        },
        {
            "bufferView" : 19,
            "componentType" : 5126,
            "count" : 960,
            "type" : "VEC2"
        }
    ],
    "bufferViews" : [
        {
            "buffer" : 0,
            "byteLength" : 11520,
            "byteOffset" : 0
        },
        {
            "buffer" : 0,
            "byteLength" : 11520,
            "byteOffset" : 11520
        },
        {
            "buffer" : 0,
            "byteLength" : 7680,
            "byteOffset" : 23040
        },
        {
            "buffer" : 0,
            "byteLength" : 1920,
            "byteOffset" : 30720
        },
        {
            "buffer" : 0,
            "byteLength" : 11520,
            "byteOffset" : 32640
        },
        {
            "buffer" : 0,
            "byteLength" : 11520,
            "byteOffset" : 44160
        },
        {
            "buffer" : 0,
            "byteLength" : 7680,
            "byteOffset" : 55680
        },
        {
            "buffer" : 0,
            "byteLength" : 11520,
            "byteOffset" : 63360
        },
        {
            "buffer" : 0,
            "byteLength" : 11520,
            "byteOffset" : 74880
        },
        {
            "buffer" : 0,
            "byteLength" : 7680,
            "byteOffset" : 86400
        },
        {
            "buffer" : 0,
            "byteLength" : 1920,
            "byteOffset" : 94080
        },
        {
            "buffer" : 0,
            "byteLength" : 11520,
            "byteOffset" : 96000
        },
        {
            "buffer" : 0,
            "byteLength" : 11520,
            "byteOffset" : 107520
        },
        {
            "buffer" : 0,
            "byteLength" : 7680,
            "byteOffset" : 119040
        },
        {
            "buffer" : 0,
            "byteLength" : 11520,
            "byteOffset" : 126720
        },
        {
            "buffer" : 0,
            "byteLength" : 11520,
            "byteOffset" : 138240
        },
        {
            "buffer" : 0,
            "byteLength" : 7680,
            "byteOffset" : 149760
        },
        {
            "buffer" : 0,
            "byteLength" : 11520,
            "byteOffset" : 157440
        },
        {
            "buffer" : 0,
            "byteLength" : 11520,
            "byteOffset" : 168960
        },
        {
            "buffer" : 0,
            "byteLength" : 7680,
            "byteOffset" : 180480
        }
    ],
    "buffers" : [
        {
            "byteLength" : 188160,
            "uri" : "data:application/octet-stream;base64,"
        }
    ]
}
