{
    "asset" : {
        "generator" : "Khronos glTF Blender I/O v1.8.19",
        "version" : "2.0"
    },
    "scene" : 0,
    "scenes" : [
        {
            "name" : "Scene",
            "nodes" : [
                0
            ]
        }
    ],
    "nodes" : [
        {
            "mesh" : 0,
            "name" : "Starbucks",
            "rotation" : [
                0,
                -0.7071068286895752,
                0,
                0.7071068286895752
            ],
            "scale" : [
                13.313362121582031,
                -7.774979591369629,
                0.3211654722690582
            ],
            "translation" : [
                -47.276947021484375,
                16.303136825561523,
                82.96778106689453
            ]
        }
    ],
    "materials" : [
        {
            "doubleSided" : true,
            "name" : "Frost.001",
            "pbrMetallicRoughness" : {}
        },
        {
            "doubleSided" : true,
            "name" : "Building Color.001",
            "pbrMetallicRoughness" : {
                "baseColorFactor" : [
                    0.800000011920929,
                    0.800000011920929,
                    0.800000011920929,
                    1
                ],
                "metallicFactor" : 0,
                "roughnessFactor" : 0.5
            }
        },
        {
            "doubleSided" : true,
            "name" : "Outline Color.001",
            "pbrMetallicRoughness" : {
                "baseColorFactor" : [
                    0,
                    0,
                    0,
                    1
                ],
                "metallicFactor" : 0,
                "roughnessFactor" : 0.5
            }
        },
        {
            "doubleSided" : true,
            "name" : "Glass.008",
            "pbrMetallicRoughness" : {}
        },
        {
            "doubleSided" : true,
            "name" : "Font Color.001",
            "pbrMetallicRoughness" : {
                "baseColorFactor" : [
                    0.000807669828645885,
                    0.026293449103832245,
                    0.0008513135253451765,
                    1
                ],
                "metallicFactor" : 0,
                "roughnessFactor" : 0.5
            }
        },
        {
            "doubleSided" : true,
            "name" : "Window.003",
            "pbrMetallicRoughness" : {
                "baseColorFactor" : [
                    0.005980477202683687,
                    0.002997677307575941,
                    0.00039455463411286473,
                    1
                ],
                "metallicFactor" : 0,
                "roughnessFactor" : 0.5
            }
        },
        {
            "doubleSided" : true,
            "name" : "Glass.009",
            "pbrMetallicRoughness" : {}
        }
    ],
    "meshes" : [
        {
            "name" : "Cube.008",
            "primitives" : [
                {
                    "attributes" : {
                        "POSITION" : 0,
                        "NORMAL" : 1,
                        "TEXCOORD_0" : 2
                    },
                    "indices" : 3,
                    "material" : 0
                },
                {
                    "attributes" : {
                        "POSITION" : 4,
                        "NORMAL" : 5,
                        "TEXCOORD_0" : 6
                    },
                    "indices" : 7,
                    "material" : 1
                },
                {
                    "attributes" : {
                        "POSITION" : 8,
                        "NORMAL" : 9,
                        "TEXCOORD_0" : 10
                    },
                    "indices" : 11,
                    "material" : 2
                },
                {
                    "attributes" : {
                        "POSITION" : 12,
                        "NORMAL" : 13,
                        "TEXCOORD_0" : 14
                    },
                    "indices" : 15,
                    "material" : 3
                },
                {
                    "attributes" : {
                        "POSITION" : 16,
                        "NORMAL" : 17,
                        "TEXCOORD_0" : 18
                    },
                    "indices" : 19,
                    "material" : 4
                },
                {
                    "attributes" : {
                        "POSITION" : 20,
                        "NORMAL" : 21,
                        "TEXCOORD_0" : 22
                    },
                    "indices" : 23,
                    "material" : 5
                },
                {
                    "attributes" : {
                        "POSITION" : 24,
                        "NORMAL" : 25,
                        "TEXCOORD_0" : 26
                    },
                    "indices" : 27,
                    "material" : 6
                }
            ]
        }
    ],
    "accessors" : [
        {
            "bufferView" : 0,
            "componentType" : 5126,
            "count" : 8,
            "max" : [
                -1.3012399673461914,
                -0.14829659461975098,
                24.770235061645508
            ],
            "min" : [
                -1.3012399673461914,
                -0.7926211357116699,
                -25.948776245117188
            ],
            "type" : "VEC3"
        },
        {
            "bufferView" : 1,
            "componentType" : 5126,
            "count" : 8,
            "type" : "VEC3"
        },
        {
            "bufferView" : 2,
            "componentType" : 5126,
            "count" : 8,
            "type" : "VEC2"
        },
        {
            "bufferView" : 3,
            "componentType" : 5123,
            "count" : 12,
            "type" : "SCALAR"
        },
        {
            "bufferView" : 4,
            "componentType" : 5126,
            "count" : 2664,
            "max" : [
                0.9957644939422607,
                2.0896155834198,
                48.51880645751953
            ],
            "min" : [
                -1.3581523895263672,
                -2.089615821838379,
                -50.12527084350586
            ],
            "type" : "VEC3"
        },
        {
            "bufferView" : 5,
            "componentType" : 5126,
            "count" : 2664,
            "type" : "VEC3"
        },
        {
            "bufferView" : 6,
            "componentType" : 5126,
            "count" : 2664,
            "type" : "VEC2"
        },
        {
            "bufferView" : 7,
            "componentType" : 5123,
            "count" : 6828,
            "type" : "SCALAR"
        },
        {
            "bufferView" : 8,
            "componentType" : 5126,
            "count" : 1169,
            "max" : [
                0.9957644939422607,
                2.0896155834198,
                48.51880645751953
            ],
            "min" : [
                -1.3581523895263672,
                -2.089615821838379,
                -50.27155685424805
            ],
            "type" : "VEC3"
        },
        {
            "bufferView" : 9,
            "componentType" : 5126,
            "count" : 1169,
            "type" : "VEC3"
        },
        {
            "bufferView" : 10,
            "componentType" : 5126,
            "count" : 1169,
            "type" : "VEC2"
        },
        {
            "bufferView" : 11,
            "componentType" : 5123,
            "count" : 2073,
            "type" : "SCALAR"
        },
        {
            "bufferView" : 12,
            "componentType" : 5126,
            "count" : 52,
            "max" : [
                0.2240653932094574,
                1.6881589889526367,
                -39.476932525634766
            ],
            "min" : [
                -1.1689682006835938,
                1.068488359451294,
                -46.76403045654297
            ],
            "type" : "VEC3"
        },
        {
            "bufferView" : 13,
            "componentType" : 5126,
            "count" : 52,
            "type" : "VEC3"
        },
        {
            "bufferView" : 14,
            "componentType" : 5126,
            "count" : 52,
            "type" : "VEC2"
        },
        {
            "bufferView" : 15,
            "componentType" : 5123,
            "count" : 72,
            "type" : "SCALAR"
        },
        {
            "bufferView" : 16,
            "componentType" : 5126,
            "count" : 9227,
            "max" : [
                -0.04352855682373047,
                0.7676963806152344,
                -48.85249328613281
            ],
            "min" : [
                -0.5219681859016418,
                0.46167421340942383,
                -49.30349349975586
            ],
            "type" : "VEC3"
        },
        {
            "bufferView" : 17,
            "componentType" : 5126,
            "count" : 9227,
            "type" : "VEC3"
        },
        {
            "bufferView" : 18,
            "componentType" : 5126,
            "count" : 9227,
            "type" : "VEC2"
        },
        {
            "bufferView" : 19,
            "componentType" : 5123,
            "count" : 10536,
            "type" : "SCALAR"
        },
        {
            "bufferView" : 20,
            "componentType" : 5126,
            "count" : 4193,
            "max" : [
                0.3320907950401306,
                0.06919127702713013,
                -48.59654998779297
            ],
            "min" : [
                -0.774433434009552,
                -1.3700567483901978,
                -53.55651092529297
            ],
            "type" : "VEC3"
        },
        {
            "bufferView" : 21,
            "componentType" : 5126,
            "count" : 4193,
            "type" : "VEC3"
        },
        {
            "bufferView" : 22,
            "componentType" : 5126,
            "count" : 4193,
            "type" : "VEC2"
        },
        {
            "bufferView" : 23,
            "componentType" : 5123,
            "count" : 7926,
            "type" : "SCALAR"
        },
        {
            "bufferView" : 24,
            "componentType" : 5126,
            "count" : 554,
            "max" : [
                0.295529305934906,
                -0.017564475536346436,
                -48.59654998779297
            ],
            "min" : [
                -0.7384234666824341,
                -0.9750177264213562,
                -52.57209777832031
            ],
            "type" : "VEC3"
        },
        {
            "bufferView" : 25,
            "componentType" : 5126,
            "count" : 554,
            "type" : "VEC3"
        },
        {
            "bufferView" : 26,
            "componentType" : 5126,
            "count" : 554,
            "type" : "VEC2"
        },
        {
            "bufferView" : 27,
            "componentType" : 5123,
            "count" : 768,
            "type" : "SCALAR"
        }
    ],
    "bufferViews" : [
        {
            "buffer" : 0,
            "byteLength" : 96,
            "byteOffset" : 0
        },
        {
            "buffer" : 0,
            "byteLength" : 96,
            "byteOffset" : 96
        },
        {
            "buffer" : 0,
            "byteLength" : 64,
            "byteOffset" : 192
        },
        {
            "buffer" : 0,
            "byteLength" : 24,
            "byteOffset" : 256
        },
        {
            "buffer" : 0,
            "byteLength" : 31968,
            "byteOffset" : 280
        },
        {
            "buffer" : 0,
            "byteLength" : 31968,
            "byteOffset" : 32248
        },
        {
            "buffer" : 0,
            "byteLength" : 21312,
            "byteOffset" : 64216
        },
        {
            "buffer" : 0,
            "byteLength" : 13656,
            "byteOffset" : 85528
        },
        {
            "buffer" : 0,
            "byteLength" : 14028,
            "byteOffset" : 99184
        },
        {
            "buffer" : 0,
            "byteLength" : 14028,
            "byteOffset" : 113212
        },
        {
            "buffer" : 0,
            "byteLength" : 9352,
            "byteOffset" : 127240
        },
        {
            "buffer" : 0,
            "byteLength" : 4146,
            "byteOffset" : 136592
        },
        {
            "buffer" : 0,
            "byteLength" : 624,
            "byteOffset" : 140740
        },
        {
            "buffer" : 0,
            "byteLength" : 624,
            "byteOffset" : 141364
        },
        {
            "buffer" : 0,
            "byteLength" : 416,
            "byteOffset" : 141988
        },
        {
            "buffer" : 0,
            "byteLength" : 144,
            "byteOffset" : 142404
        },
        {
            "buffer" : 0,
            "byteLength" : 110724,
            "byteOffset" : 142548
        },
        {
            "buffer" : 0,
            "byteLength" : 110724,
            "byteOffset" : 253272
        },
        {
            "buffer" : 0,
            "byteLength" : 73816,
            "byteOffset" : 363996
        },
        {
            "buffer" : 0,
            "byteLength" : 21072,
            "byteOffset" : 437812
        },
        {
            "buffer" : 0,
            "byteLength" : 50316,
            "byteOffset" : 458884
        },
        {
            "buffer" : 0,
            "byteLength" : 50316,
            "byteOffset" : 509200
        },
        {
            "buffer" : 0,
            "byteLength" : 33544,
            "byteOffset" : 559516
        },
        {
            "buffer" : 0,
            "byteLength" : 15852,
            "byteOffset" : 593060
        },
        {
            "buffer" : 0,
            "byteLength" : 6648,
            "byteOffset" : 608912
        },
        {
            "buffer" : 0,
            "byteLength" : 6648,
            "byteOffset" : 615560
        },
        {
            "buffer" : 0,
            "byteLength" : 4432,
            "byteOffset" : 622208
        },
        {
            "buffer" : 0,
            "byteLength" : 1536,
            "byteOffset" : 626640
        }
    ],
    "buffers" : [
        {
            "byteLength" : 628176,
            "uri" : "data:application/octet-stream;base64,"
        }
    ]
}
