{
    "asset" : {
        "generator" : "Khronos glTF Blender I/O v1.8.19",
        "version" : "2.0"
    },
    "scene" : 0,
    "scenes" : [
        {
            "name" : "Scene",
            "nodes" : [
                0,
                1,
                2,
                3
            ]
        }
    ],
    "nodes" : [
        {
            "mesh" : 0,
            "name" : "TrashCan",
            "scale" : [
                1.859104871749878,
                1.859104871749878,
                1.480409026145935
            ],
            "translation" : [
                13.541081428527832,
                4.062135219573975,
                187.90933227539062
            ]
        },
        {
            "mesh" : 1,
            "name" : "TrashCan.003",
            "scale" : [
                1.859104871749878,
                1.859104871749878,
                1.480409026145935
            ],
            "translation" : [
                13.541081428527832,
                4.062135219573975,
                75.87506866455078
            ]
        },
        {
            "mesh" : 2,
            "name" : "TrashCan.002",
            "scale" : [
                1.859104871749878,
                1.859104871749878,
                1.480409026145935
            ],
            "translation" : [
                13.541081428527832,
                4.062135219573975,
                -113.51759338378906
            ]
        },
        {
            "mesh" : 3,
            "name" : "TrashCan.001",
            "scale" : [
                1.859104871749878,
                1.859104871749878,
                1.480409026145935
            ],
            "translation" : [
                13.541081428527832,
                4.062135219573975,
                1.9147377014160156
            ]
        }
    ],
    "materials" : [
        {
            "doubleSided" : true,
            "name" : "Material.027",
            "pbrMetallicRoughness" : {}
        }
    ],
    "meshes" : [
        {
            "name" : "Cylinder.001",
            "primitives" : [
                {
                    "attributes" : {
                        "POSITION" : 0,
                        "NORMAL" : 1,
                        "TEXCOORD_0" : 2
                    },
                    "indices" : 3,
                    "material" : 0
                }
            ]
        },
        {
            "name" : "Cylinder.002",
            "primitives" : [
                {
                    "attributes" : {
                        "POSITION" : 4,
                        "NORMAL" : 5,
                        "TEXCOORD_0" : 6
                    },
                    "indices" : 3,
                    "material" : 0
                }
            ]
        },
        {
            "name" : "Cylinder.006",
            "primitives" : [
                {
                    "attributes" : {
                        "POSITION" : 7,
                        "NORMAL" : 8,
                        "TEXCOORD_0" : 9
                    },
                    "indices" : 3,
                    "material" : 0
                }
            ]
        },
        {
            "name" : "Cylinder.007",
            "primitives" : [
                {
                    "attributes" : {
                        "POSITION" : 10,
                        "NORMAL" : 11,
                        "TEXCOORD_0" : 12
                    },
                    "indices" : 3,
                    "material" : 0
                }
            ]
        }
    ],
    "accessors" : [
        {
            "bufferView" : 0,
            "componentType" : 5126,
            "count" : 6723,
            "max" : [
                1.2044222354888916,
                1.0327459573745728,
                1.2044222354888916
            ],
            "min" : [
                -1.2044222354888916,
                -1.626388430595398,
                -1.2044222354888916
            ],
            "type" : "VEC3"
        },
        {
            "bufferView" : 1,
            "componentType" : 5126,
            "count" : 6723,
            "type" : "VEC3"
        },
        {
            "bufferView" : 2,
            "componentType" : 5126,
            "count" : 6723,
            "type" : "VEC2"
        },
        {
            "bufferView" : 3,
            "componentType" : 5123,
            "count" : 7440,
            "type" : "SCALAR"
        },
        {
            "bufferView" : 4,
            "componentType" : 5126,
            "count" : 6723,
            "max" : [
                1.2044222354888916,
                1.0327459573745728,
                1.2044222354888916
            ],
            "min" : [
                -1.2044222354888916,
                -1.626388430595398,
                -1.2044222354888916
            ],
            "type" : "VEC3"
        },
        {
            "bufferView" : 5,
            "componentType" : 5126,
            "count" : 6723,
            "type" : "VEC3"
        },
        {
            "bufferView" : 6,
            "componentType" : 5126,
            "count" : 6723,
            "type" : "VEC2"
        },
        {
            "bufferView" : 7,
            "componentType" : 5126,
            "count" : 6723,
            "max" : [
                1.2044222354888916,
                1.0327459573745728,
                1.2044222354888916
            ],
            "min" : [
                -1.2044222354888916,
                -1.626388430595398,
                -1.2044222354888916
            ],
            "type" : "VEC3"
        },
        {
            "bufferView" : 8,
            "componentType" : 5126,
            "count" : 6723,
            "type" : "VEC3"
        },
        {
            "bufferView" : 9,
            "componentType" : 5126,
            "count" : 6723,
            "type" : "VEC2"
        },
        {
            "bufferView" : 10,
            "componentType" : 5126,
            "count" : 6723,
            "max" : [
                1.2044222354888916,
                1.0327459573745728,
                1.2044222354888916
            ],
            "min" : [
                -1.2044222354888916,
                -1.626388430595398,
                -1.2044222354888916
            ],
            "type" : "VEC3"
        },
        {
            "bufferView" : 11,
            "componentType" : 5126,
            "count" : 6723,
            "type" : "VEC3"
        },
        {
            "bufferView" : 12,
            "componentType" : 5126,
            "count" : 6723,
            "type" : "VEC2"
        }
    ],
    "bufferViews" : [
        {
            "buffer" : 0,
            "byteLength" : 80676,
            "byteOffset" : 0
        },
        {
            "buffer" : 0,
            "byteLength" : 80676,
            "byteOffset" : 80676
        },
        {
            "buffer" : 0,
            "byteLength" : 53784,
            "byteOffset" : 161352
        },
        {
            "buffer" : 0,
            "byteLength" : 14880,
            "byteOffset" : 215136
        },
        {
            "buffer" : 0,
            "byteLength" : 80676,
            "byteOffset" : 230016
        },
        {
            "buffer" : 0,
            "byteLength" : 80676,
            "byteOffset" : 310692
        },
        {
            "buffer" : 0,
            "byteLength" : 53784,
            "byteOffset" : 391368
        },
        {
            "buffer" : 0,
            "byteLength" : 80676,
            "byteOffset" : 445152
        },
        {
            "buffer" : 0,
            "byteLength" : 80676,
            "byteOffset" : 525828
        },
        {
            "buffer" : 0,
            "byteLength" : 53784,
            "byteOffset" : 606504
        },
        {
            "buffer" : 0,
            "byteLength" : 80676,
            "byteOffset" : 660288
        },
        {
            "buffer" : 0,
            "byteLength" : 80676,
            "byteOffset" : 740964
        },
        {
            "buffer" : 0,
            "byteLength" : 53784,
            "byteOffset" : 821640
        }
    ],
    "buffers" : [
        {
            "byteLength" : 875424,
            "uri" : "data:application/octet-stream;base64,"
        }
    ]
}
