{
    "asset" : {
        "generator" : "Khronos glTF Blender I/O v1.8.19",
        "version" : "2.0"
    },
    "scene" : 0,
    "scenes" : [
        {
            "name" : "Scene",
            "nodes" : [
                0,
                1,
                2,
                3
            ]
        }
    ],
    "nodes" : [
        {
            "mesh" : 0,
            "name" : "Cylinder",
            "scale" : [
                1.2976479530334473,
                1.2976479530334473,
                1.264684796333313
            ],
            "translation" : [
                13.83312702178955,
                0,
                214.98826599121094
            ]
        },
        {
            "mesh" : 1,
            "name" : "Cylinder.001",
            "scale" : [
                1.2976480722427368,
                1.2976480722427368,
                1.2976480722427368
            ],
            "translation" : [
                13.83312702178955,
                0,
                -180.57884216308594
            ]
        },
        {
            "mesh" : 2,
            "name" : "Cylinder.002",
            "scale" : [
                1.2976480722427368,
                1.2976480722427368,
                1.2976480722427368
            ],
            "translation" : [
                13.83312702178955,
                0,
                83.17572021484375
            ]
        },
        {
            "mesh" : 3,
            "name" : "Cylinder.003",
            "scale" : [
                1.2976480722427368,
                1.2976480722427368,
                1.2976480722427368
            ],
            "translation" : [
                13.83312702178955,
                0,
                -37.38146209716797
            ]
        }
    ],
    "materials" : [
        {
            "doubleSided" : true,
            "name" : "Material.007",
            "pbrMetallicRoughness" : {
                "baseColorFactor" : [
                    0.800000011920929,
                    0.800000011920929,
                    0.800000011920929,
                    1
                ],
                "metallicFactor" : 0,
                "roughnessFactor" : 0.5
            }
        },
        {
            "doubleSided" : true,
            "name" : "Material.008",
            "pbrMetallicRoughness" : {
                "baseColorFactor" : [
                    0.06525099277496338,
                    0.06525099277496338,
                    0.06525099277496338,
                    1
                ],
                "metallicFactor" : 0,
                "roughnessFactor" : 0.5
            }
        },
        {
            "doubleSided" : true,
            "emissiveFactor" : [
                0.9923988580703735,
                0.9923988580703735,
                0.9923988580703735
            ],
            "name" : "Material.009",
            "pbrMetallicRoughness" : {
                "baseColorFactor" : [
                    0.800000011920929,
                    0.800000011920929,
                    0.800000011920929,
                    1
                ],
                "metallicFactor" : 0,
                "roughnessFactor" : 0.5
            }
        }
    ],
    "meshes" : [
        {
            "name" : "Cylinder",
            "primitives" : [
                {
                    "attributes" : {
                        "POSITION" : 0,
                        "NORMAL" : 1,
                        "TEXCOORD_0" : 2
                    },
                    "indices" : 3,
                    "material" : 0
                },
                {
                    "attributes" : {
                        "POSITION" : 4,
                        "NORMAL" : 5,
                        "TEXCOORD_0" : 6
                    },
                    "indices" : 7,
                    "material" : 1
                },
                {
                    "attributes" : {
                        "POSITION" : 8,
                        "NORMAL" : 9,
                        "TEXCOORD_0" : 10
                    },
                    "indices" : 11,
                    "material" : 2
                }
            ]
        },
        {
            "name" : "Cylinder.005",
            "primitives" : [
                {
                    "attributes" : {
                        "POSITION" : 12,
                        "NORMAL" : 13,
                        "TEXCOORD_0" : 14
                    },
                    "indices" : 3,
                    "material" : 0
                },
                {
                    "attributes" : {
                        "POSITION" : 15,
                        "NORMAL" : 16,
                        "TEXCOORD_0" : 17
                    },
                    "indices" : 7,
                    "material" : 1
                },
                {
                    "attributes" : {
                        "POSITION" : 18,
                        "NORMAL" : 19,
                        "TEXCOORD_0" : 20
                    },
                    "indices" : 11,
                    "material" : 2
                }
            ]
        },
        {
            "name" : "Cylinder.008",
            "primitives" : [
                {
                    "attributes" : {
                        "POSITION" : 21,
                        "NORMAL" : 22,
                        "TEXCOORD_0" : 23
                    },
                    "indices" : 3,
                    "material" : 0
                },
                {
                    "attributes" : {
                        "POSITION" : 24,
                        "NORMAL" : 25,
                        "TEXCOORD_0" : 26
                    },
                    "indices" : 7,
                    "material" : 1
                },
                {
                    "attributes" : {
                        "POSITION" : 27,
                        "NORMAL" : 28,
                        "TEXCOORD_0" : 29
                    },
                    "indices" : 11,
                    "material" : 2
                }
            ]
        },
        {
            "name" : "Cylinder.009",
            "primitives" : [
                {
                    "attributes" : {
                        "POSITION" : 30,
                        "NORMAL" : 31,
                        "TEXCOORD_0" : 32
                    },
                    "indices" : 3,
                    "material" : 0
                },
                {
                    "attributes" : {
                        "POSITION" : 33,
                        "NORMAL" : 34,
                        "TEXCOORD_0" : 35
                    },
                    "indices" : 7,
                    "material" : 1
                },
                {
                    "attributes" : {
                        "POSITION" : 36,
                        "NORMAL" : 37,
                        "TEXCOORD_0" : 38
                    },
                    "indices" : 11,
                    "material" : 2
                }
            ]
        }
    ],
    "accessors" : [
        {
            "bufferView" : 0,
            "componentType" : 5126,
            "count" : 714,
            "max" : [
                1.5902577638626099,
                18.548826217651367,
                1.8362714052200317
            ],
            "min" : [
                -1.5902577638626099,
                -1.0698286294937134,
                -1.8362714052200317
            ],
            "type" : "VEC3"
        },
        {
            "bufferView" : 1,
            "componentType" : 5126,
            "count" : 714,
            "type" : "VEC3"
        },
        {
            "bufferView" : 2,
            "componentType" : 5126,
            "count" : 714,
            "type" : "VEC2"
        },
        {
            "bufferView" : 3,
            "componentType" : 5123,
            "count" : 750,
            "type" : "SCALAR"
        },
        {
            "bufferView" : 4,
            "componentType" : 5126,
            "count" : 835,
            "max" : [
                1.5902577638626099,
                18.62350845336914,
                1.8362714052200317
            ],
            "min" : [
                -1.5902577638626099,
                -1.0698286294937134,
                -1.8362714052200317
            ],
            "type" : "VEC3"
        },
        {
            "bufferView" : 5,
            "componentType" : 5126,
            "count" : 835,
            "type" : "VEC3"
        },
        {
            "bufferView" : 6,
            "componentType" : 5126,
            "count" : 835,
            "type" : "VEC2"
        },
        {
            "bufferView" : 7,
            "componentType" : 5123,
            "count" : 858,
            "type" : "SCALAR"
        },
        {
            "bufferView" : 8,
            "componentType" : 5126,
            "count" : 34,
            "max" : [
                0.5538275241851807,
                17.503629684448242,
                0.5893847346305847
            ],
            "min" : [
                -0.5538304448127747,
                16.931499481201172,
                -0.5893847942352295
            ],
            "type" : "VEC3"
        },
        {
            "bufferView" : 9,
            "componentType" : 5126,
            "count" : 34,
            "type" : "VEC3"
        },
        {
            "bufferView" : 10,
            "componentType" : 5126,
            "count" : 34,
            "type" : "VEC2"
        },
        {
            "bufferView" : 11,
            "componentType" : 5123,
            "count" : 36,
            "type" : "SCALAR"
        },
        {
            "bufferView" : 12,
            "componentType" : 5126,
            "count" : 714,
            "max" : [
                1.5902577638626099,
                18.548826217651367,
                1.8362714052200317
            ],
            "min" : [
                -1.5902577638626099,
                -1.0698286294937134,
                -1.8362714052200317
            ],
            "type" : "VEC3"
        },
        {
            "bufferView" : 13,
            "componentType" : 5126,
            "count" : 714,
            "type" : "VEC3"
        },
        {
            "bufferView" : 14,
            "componentType" : 5126,
            "count" : 714,
            "type" : "VEC2"
        },
        {
            "bufferView" : 15,
            "componentType" : 5126,
            "count" : 835,
            "max" : [
                1.5902577638626099,
                18.62350845336914,
                1.8362714052200317
            ],
            "min" : [
                -1.5902577638626099,
                -1.0698286294937134,
                -1.8362714052200317
            ],
            "type" : "VEC3"
        },
        {
            "bufferView" : 16,
            "componentType" : 5126,
            "count" : 835,
            "type" : "VEC3"
        },
        {
            "bufferView" : 17,
            "componentType" : 5126,
            "count" : 835,
            "type" : "VEC2"
        },
        {
            "bufferView" : 18,
            "componentType" : 5126,
            "count" : 34,
            "max" : [
                0.5538275241851807,
                17.503629684448242,
                0.5893847346305847
            ],
            "min" : [
                -0.5538304448127747,
                16.931499481201172,
                -0.5893847942352295
            ],
            "type" : "VEC3"
        },
        {
            "bufferView" : 19,
            "componentType" : 5126,
            "count" : 34,
            "type" : "VEC3"
        },
        {
            "bufferView" : 20,
            "componentType" : 5126,
            "count" : 34,
            "type" : "VEC2"
        },
        {
            "bufferView" : 21,
            "componentType" : 5126,
            "count" : 714,
            "max" : [
                1.5902577638626099,
                18.548826217651367,
                1.8362714052200317
            ],
            "min" : [
                -1.5902577638626099,
                -1.0698286294937134,
                -1.8362714052200317
            ],
            "type" : "VEC3"
        },
        {
            "bufferView" : 22,
            "componentType" : 5126,
            "count" : 714,
            "type" : "VEC3"
        },
        {
            "bufferView" : 23,
            "componentType" : 5126,
            "count" : 714,
            "type" : "VEC2"
        },
        {
            "bufferView" : 24,
            "componentType" : 5126,
            "count" : 835,
            "max" : [
                1.5902577638626099,
                18.62350845336914,
                1.8362714052200317
            ],
            "min" : [
                -1.5902577638626099,
                -1.0698286294937134,
                -1.8362714052200317
            ],
            "type" : "VEC3"
        },
        {
            "bufferView" : 25,
            "componentType" : 5126,
            "count" : 835,
            "type" : "VEC3"
        },
        {
            "bufferView" : 26,
            "componentType" : 5126,
            "count" : 835,
            "type" : "VEC2"
        },
        {
            "bufferView" : 27,
            "componentType" : 5126,
            "count" : 34,
            "max" : [
                0.5538275241851807,
                17.503629684448242,
                0.5893847346305847
            ],
            "min" : [
                -0.5538304448127747,
                16.931499481201172,
                -0.5893847942352295
            ],
            "type" : "VEC3"
        },
        {
            "bufferView" : 28,
            "componentType" : 5126,
            "count" : 34,
            "type" : "VEC3"
        },
        {
            "bufferView" : 29,
            "componentType" : 5126,
            "count" : 34,
            "type" : "VEC2"
        },
        {
            "bufferView" : 30,
            "componentType" : 5126,
            "count" : 714,
            "max" : [
                1.5902577638626099,
                18.548826217651367,
                1.8362714052200317
            ],
            "min" : [
                -1.5902577638626099,
                -1.0698286294937134,
                -1.8362714052200317
            ],
            "type" : "VEC3"
        },
        {
            "bufferView" : 31,
            "componentType" : 5126,
            "count" : 714,
            "type" : "VEC3"
        },
        {
            "bufferView" : 32,
            "componentType" : 5126,
            "count" : 714,
            "type" : "VEC2"
        },
        {
            "bufferView" : 33,
            "componentType" : 5126,
            "count" : 835,
            "max" : [
                1.5902577638626099,
                18.62350845336914,
                1.8362714052200317
            ],
            "min" : [
                -1.5902577638626099,
                -1.0698286294937134,
                -1.8362714052200317
            ],
            "type" : "VEC3"
        },
        {
            "bufferView" : 34,
            "componentType" : 5126,
            "count" : 835,
            "type" : "VEC3"
        },
        {
            "bufferView" : 35,
            "componentType" : 5126,
            "count" : 835,
            "type" : "VEC2"
        },
        {
            "bufferView" : 36,
            "componentType" : 5126,
            "count" : 34,
            "max" : [
                0.5538275241851807,
                17.503629684448242,
                0.5893847346305847
            ],
            "min" : [
                -0.5538304448127747,
                16.931499481201172,
                -0.5893847942352295
            ],
            "type" : "VEC3"
        },
        {
            "bufferView" : 37,
            "componentType" : 5126,
            "count" : 34,
            "type" : "VEC3"
        },
        {
            "bufferView" : 38,
            "componentType" : 5126,
            "count" : 34,
            "type" : "VEC2"
        }
    ],
    "bufferViews" : [
        {
            "buffer" : 0,
            "byteLength" : 8568,
            "byteOffset" : 0
        },
        {
            "buffer" : 0,
            "byteLength" : 8568,
            "byteOffset" : 8568
        },
        {
            "buffer" : 0,
            "byteLength" : 5712,
            "byteOffset" : 17136
        },
        {
            "buffer" : 0,
            "byteLength" : 1500,
            "byteOffset" : 22848
        },
        {
            "buffer" : 0,
            "byteLength" : 10020,
            "byteOffset" : 24348
        },
        {
            "buffer" : 0,
            "byteLength" : 10020,
            "byteOffset" : 34368
        },
        {
            "buffer" : 0,
            "byteLength" : 6680,
            "byteOffset" : 44388
        },
        {
            "buffer" : 0,
            "byteLength" : 1716,
            "byteOffset" : 51068
        },
        {
            "buffer" : 0,
            "byteLength" : 408,
            "byteOffset" : 52784
        },
        {
            "buffer" : 0,
            "byteLength" : 408,
            "byteOffset" : 53192
        },
        {
            "buffer" : 0,
            "byteLength" : 272,
            "byteOffset" : 53600
        },
        {
            "buffer" : 0,
            "byteLength" : 72,
            "byteOffset" : 53872
        },
        {
            "buffer" : 0,
            "byteLength" : 8568,
            "byteOffset" : 53944
        },
        {
            "buffer" : 0,
            "byteLength" : 8568,
            "byteOffset" : 62512
        },
        {
            "buffer" : 0,
            "byteLength" : 5712,
            "byteOffset" : 71080
        },
        {
            "buffer" : 0,
            "byteLength" : 10020,
            "byteOffset" : 76792
        },
        {
            "buffer" : 0,
            "byteLength" : 10020,
            "byteOffset" : 86812
        },
        {
            "buffer" : 0,
            "byteLength" : 6680,
            "byteOffset" : 96832
        },
        {
            "buffer" : 0,
            "byteLength" : 408,
            "byteOffset" : 103512
        },
        {
            "buffer" : 0,
            "byteLength" : 408,
            "byteOffset" : 103920
        },
        {
            "buffer" : 0,
            "byteLength" : 272,
            "byteOffset" : 104328
        },
        {
            "buffer" : 0,
            "byteLength" : 8568,
            "byteOffset" : 104600
        },
        {
            "buffer" : 0,
            "byteLength" : 8568,
            "byteOffset" : 113168
        },
        {
            "buffer" : 0,
            "byteLength" : 5712,
            "byteOffset" : 121736
        },
        {
            "buffer" : 0,
            "byteLength" : 10020,
            "byteOffset" : 127448
        },
        {
            "buffer" : 0,
            "byteLength" : 10020,
            "byteOffset" : 137468
        },
        {
            "buffer" : 0,
            "byteLength" : 6680,
            "byteOffset" : 147488
        },
        {
            "buffer" : 0,
            "byteLength" : 408,
            "byteOffset" : 154168
        },
        {
            "buffer" : 0,
            "byteLength" : 408,
            "byteOffset" : 154576
        },
        {
            "buffer" : 0,
            "byteLength" : 272,
            "byteOffset" : 154984
        },
        {
            "buffer" : 0,
            "byteLength" : 8568,
            "byteOffset" : 155256
        },
        {
            "buffer" : 0,
            "byteLength" : 8568,
            "byteOffset" : 163824
        },
        {
            "buffer" : 0,
            "byteLength" : 5712,
            "byteOffset" : 172392
        },
        {
            "buffer" : 0,
            "byteLength" : 10020,
            "byteOffset" : 178104
        },
        {
            "buffer" : 0,
            "byteLength" : 10020,
            "byteOffset" : 188124
        },
        {
            "buffer" : 0,
            "byteLength" : 6680,
            "byteOffset" : 198144
        },
        {
            "buffer" : 0,
            "byteLength" : 408,
            "byteOffset" : 204824
        },
        {
            "buffer" : 0,
            "byteLength" : 408,
            "byteOffset" : 205232
        },
        {
            "buffer" : 0,
            "byteLength" : 272,
            "byteOffset" : 205640
        }
    ],
    "buffers" : [
        {
            "byteLength" : 205912,
            "uri" : "data:application/octet-stream;base64,"
        }
    ]
}
