{
    "asset" : {
        "generator" : "Khronos glTF Blender I/O v1.8.19",
        "version" : "2.0"
    },
    "scene" : 0,
    "scenes" : [
        {
            "name" : "Scene",
            "nodes" : [
                0
            ]
        }
    ],
    "nodes" : [
        {
            "mesh" : 0,
            "name" : "Land",
            "rotation" : [
                1,
                0,
                0,
                -8.146037799861006e-08
            ],
            "scale" : [
                207.58041381835938,
                125.82610321044922,
                500.3845520019531
            ],
            "translation" : [
                -2.0959975719451904,
                -1.44074285030365,
                26.78911781311035
            ]
        }
    ],
    "materials" : [
        {
            "name" : "mat20.001",
            "pbrMetallicRoughness" : {
                "baseColorFactor" : [
                    0.46666666865348816,
                    0.3294117748737335,
                    0.27843138575553894,
                    1
                ],
                "metallicFactor" : 0.5,
                "roughnessFactor" : 0.5
            }
        },
        {
            "name" : "mat9.001",
            "pbrMetallicRoughness" : {
                "baseColorFactor" : [
                    0.46700000762939453,
                    0.32961323857307434,
                    0.27879899740219116,
                    1
                ],
                "metallicFactor" : 0.5,
                "roughnessFactor" : 0.5
            }
        }
    ],
    "meshes" : [
        {
            "name" : "Mesh_0.001",
            "primitives" : [
                {
                    "attributes" : {
                        "POSITION" : 0,
                        "NORMAL" : 1,
                        "TEXCOORD_0" : 2
                    },
                    "indices" : 3,
                    "material" : 0
                },
                {
                    "attributes" : {
                        "POSITION" : 4,
                        "NORMAL" : 5,
                        "TEXCOORD_0" : 6
                    },
                    "indices" : 7,
                    "material" : 1
                }
            ]
        }
    ],
    "accessors" : [
        {
            "bufferView" : 0,
            "componentType" : 5126,
            "count" : 88,
            "max" : [
                0.4350000023841858,
                1.4535200595855713,
                0.4350000023841858
            ],
            "min" : [
                -0.4350000023841858,
                0.010872500017285347,
                -0.4350000023841858
            ],
            "type" : "VEC3"
        },
        {
            "bufferView" : 1,
            "componentType" : 5126,
            "count" : 88,
            "type" : "VEC3"
        },
        {
            "bufferView" : 2,
            "componentType" : 5126,
            "count" : 88,
            "type" : "VEC2"
        },
        {
            "bufferView" : 3,
            "componentType" : 5123,
            "count" : 90,
            "type" : "SCALAR"
        },
        {
            "bufferView" : 4,
            "componentType" : 5126,
            "count" : 30,
            "max" : [
                0.4350000023841858,
                0.01087270025163889,
                0.4350000023841858
            ],
            "min" : [
                -0.4350000023841858,
                -0.018953800201416016,
                -0.4350000023841858
            ],
            "type" : "VEC3"
        },
        {
            "bufferView" : 5,
            "componentType" : 5126,
            "count" : 30,
            "type" : "VEC3"
        },
        {
            "bufferView" : 6,
            "componentType" : 5126,
            "count" : 30,
            "type" : "VEC2"
        },
        {
            "bufferView" : 7,
            "componentType" : 5123,
            "count" : 30,
            "type" : "SCALAR"
        }
    ],
    "bufferViews" : [
        {
            "buffer" : 0,
            "byteLength" : 1056,
            "byteOffset" : 0
        },
        {
            "buffer" : 0,
            "byteLength" : 1056,
            "byteOffset" : 1056
        },
        {
            "buffer" : 0,
            "byteLength" : 704,
            "byteOffset" : 2112
        },
        {
            "buffer" : 0,
            "byteLength" : 180,
            "byteOffset" : 2816
        },
        {
            "buffer" : 0,
            "byteLength" : 360,
            "byteOffset" : 2996
        },
        {
            "buffer" : 0,
            "byteLength" : 360,
            "byteOffset" : 3356
        },
        {
            "buffer" : 0,
            "byteLength" : 240,
            "byteOffset" : 3716
        },
        {
            "buffer" : 0,
            "byteLength" : 60,
            "byteOffset" : 3956
        }
    ],
    "buffers" : [
        {
            "byteLength" : 4016,
            "uri" : "data:application/octet-stream;base64,"
        }
    ]
}
