{
    "asset" : {
        "generator" : "Khronos glTF Blender I/O v1.8.19",
        "version" : "2.0"
    },
    "scene" : 0,
    "scenes" : [
        {
            "name" : "Scene",
            "nodes" : [
                0
            ]
        }
    ],
    "nodes" : [
        {
            "mesh" : 0,
            "name" : "Tree",
            "scale" : [
                2.3758785724639893,
                2.3758785724639893,
                2.3758785724639893
            ],
            "translation" : [
                29.525346755981445,
                8.744708061218262,
                -2.873338222503662
            ]
        }
    ],
    "materials" : [
        {
            "doubleSided" : true,
            "name" : "Green.001",
            "pbrMetallicRoughness" : {
                "baseColorFactor" : [
                    0.12843404710292816,
                    0.46720585227012634,
                    0.12982647120952606,
                    1
                ],
                "metallicFactor" : 0,
                "roughnessFactor" : 0.5
            }
        },
        {
            "doubleSided" : true,
            "name" : "Brown.001",
            "pbrMetallicRoughness" : {
                "baseColorFactor" : [
                    0.23955407738685608,
                    0.09470219165086746,
                    0.051386602222919464,
                    1
                ],
                "metallicFactor" : 0,
                "roughnessFactor" : 0.4000000059604645
            }
        }
    ],
    "meshes" : [
        {
            "name" : "Icosphere.009",
            "primitives" : [
                {
                    "attributes" : {
                        "POSITION" : 0,
                        "NORMAL" : 1,
                        "TEXCOORD_0" : 2
                    },
                    "indices" : 3,
                    "material" : 0
                },
                {
                    "attributes" : {
                        "POSITION" : 4,
                        "NORMAL" : 5,
                        "TEXCOORD_0" : 6
                    },
                    "indices" : 7,
                    "material" : 1
                }
            ]
        }
    ],
    "accessors" : [
        {
            "bufferView" : 0,
            "componentType" : 5126,
            "count" : 1680,
            "max" : [
                2.1028223037719727,
                1.0877220630645752,
                1.2309849262237549
            ],
            "min" : [
                -2.4016146659851074,
                -0.985485315322876,
                -2.552999496459961
            ],
            "type" : "VEC3"
        },
        {
            "bufferView" : 1,
            "componentType" : 5126,
            "count" : 1680,
            "type" : "VEC3"
        },
        {
            "bufferView" : 2,
            "componentType" : 5126,
            "count" : 1680,
            "type" : "VEC2"
        },
        {
            "bufferView" : 3,
            "componentType" : 5123,
            "count" : 1680,
            "type" : "SCALAR"
        },
        {
            "bufferView" : 4,
            "componentType" : 5126,
            "count" : 6528,
            "max" : [
                1.4626392126083374,
                -0.13234829902648926,
                0.4446223974227905
            ],
            "min" : [
                -1.7144502401351929,
                -3.658921241760254,
                -1.7862001657485962
            ],
            "type" : "VEC3"
        },
        {
            "bufferView" : 5,
            "componentType" : 5126,
            "count" : 6528,
            "type" : "VEC3"
        },
        {
            "bufferView" : 6,
            "componentType" : 5126,
            "count" : 6528,
            "type" : "VEC2"
        },
        {
            "bufferView" : 7,
            "componentType" : 5123,
            "count" : 8220,
            "type" : "SCALAR"
        }
    ],
    "bufferViews" : [
        {
            "buffer" : 0,
            "byteLength" : 20160,
            "byteOffset" : 0
        },
        {
            "buffer" : 0,
            "byteLength" : 20160,
            "byteOffset" : 20160
        },
        {
            "buffer" : 0,
            "byteLength" : 13440,
            "byteOffset" : 40320
        },
        {
            "buffer" : 0,
            "byteLength" : 3360,
            "byteOffset" : 53760
        },
        {
            "buffer" : 0,
            "byteLength" : 78336,
            "byteOffset" : 57120
        },
        {
            "buffer" : 0,
            "byteLength" : 78336,
            "byteOffset" : 135456
        },
        {
            "buffer" : 0,
            "byteLength" : 52224,
            "byteOffset" : 213792
        },
        {
            "buffer" : 0,
            "byteLength" : 16440,
            "byteOffset" : 266016
        }
    ],
    "buffers" : [
        {
            "byteLength" : 282456,
            "uri" : "data:application/octet-stream;base64,"
        }
    ]
}
