{
    "asset" : {
        "generator" : "Khronos glTF Blender I/O v1.8.19",
        "version" : "2.0"
    },
    "scene" : 0,
    "scenes" : [
        {
            "name" : "Scene",
            "nodes" : [
                0,
                1,
                2,
                3,
                4,
                5,
                6,
                7
            ]
        }
    ],
    "nodes" : [
        {
            "name" : "Plane",
            "translation" : [
                100,
                100,
                100
            ]
        },
        {
            "mesh" : 0,
            "name" : "Icosphere.009",
            "scale" : [
                2.3758785724639893,
                2.3758785724639893,
                2.3758785724639893
            ],
            "translation" : [
                -0.3911742568016052,
                8.744708061218262,
                1.9038033485412598
            ]
        },
        {
            "name" : "Plane.001",
            "translation" : [
                -0.1685197651386261,
                -0.9220883846282959,
                14.74838924407959
            ]
        },
        {
            "mesh" : 1,
            "name" : "Icosphere.001",
            "scale" : [
                2.3758785724639893,
                2.3758785724639893,
                2.3758785724639893
            ],
            "translation" : [
                0.40347692370414734,
                7.822619915008545,
                16.652191162109375
            ]
        },
        {
            "name" : "Plane.002",
            "translation" : [
                -0.8855530023574829,
                0.39777183532714844,
                -18.237030029296875
            ]
        },
        {
            "mesh" : 2,
            "name" : "Icosphere.002",
            "scale" : [
                2.3758785724639893,
                2.3758785724639893,
                2.3758785724639893
            ],
            "translation" : [
                -0.313556432723999,
                9.14247989654541,
                -16.33322525024414
            ]
        },
        {
            "name" : "Plane.003",
            "translation" : [
                -0.5966100692749023,
                -0.8092615604400635,
                33.529205322265625
            ]
        },
        {
            "mesh" : 3,
            "name" : "Icosphere.003",
            "scale" : [
                2.3758785724639893,
                2.3758785724639893,
                2.3758785724639893
            ],
            "translation" : [
                -0.024611473083496094,
                7.935446262359619,
                35.43301010131836
            ]
        }
    ],
    "materials" : [
        {
            "doubleSided" : true,
            "name" : "Green.001",
            "pbrMetallicRoughness" : {
                "baseColorFactor" : [
                    0.12843404710292816,
                    0.46720585227012634,
                    0.12982647120952606,
                    1
                ],
                "metallicFactor" : 0,
                "roughnessFactor" : 0.5
            }
        }
    ],
    "meshes" : [
        {
            "name" : "Icosphere.009",
            "primitives" : [
                {
                    "attributes" : {
                        "POSITION" : 0,
                        "NORMAL" : 1,
                        "TEXCOORD_0" : 2
                    },
                    "indices" : 3,
                    "material" : 0
                }
            ]
        },
        {
            "name" : "Icosphere.001",
            "primitives" : [
                {
                    "attributes" : {
                        "POSITION" : 4,
                        "NORMAL" : 5,
                        "TEXCOORD_0" : 6
                    },
                    "indices" : 3,
                    "material" : 0
                }
            ]
        },
        {
            "name" : "Icosphere.002",
            "primitives" : [
                {
                    "attributes" : {
                        "POSITION" : 7,
                        "NORMAL" : 8,
                        "TEXCOORD_0" : 9
                    },
                    "indices" : 3,
                    "material" : 0
                }
            ]
        },
        {
            "name" : "Icosphere.003",
            "primitives" : [
                {
                    "attributes" : {
                        "POSITION" : 10,
                        "NORMAL" : 11,
                        "TEXCOORD_0" : 12
                    },
                    "indices" : 3,
                    "material" : 0
                }
            ]
        }
    ],
    "accessors" : [
        {
            "bufferView" : 0,
            "componentType" : 5126,
            "count" : 1680,
            "max" : [
                2.1028223037719727,
                1.0877220630645752,
                1.2309849262237549
            ],
            "min" : [
                -2.4016146659851074,
                -0.985485315322876,
                -2.552999496459961
            ],
            "type" : "VEC3"
        },
        {
            "bufferView" : 1,
            "componentType" : 5126,
            "count" : 1680,
            "type" : "VEC3"
        },
        {
            "bufferView" : 2,
            "componentType" : 5126,
            "count" : 1680,
            "type" : "VEC2"
        },
        {
            "bufferView" : 3,
            "componentType" : 5123,
            "count" : 1680,
            "type" : "SCALAR"
        },
        {
            "bufferView" : 4,
            "componentType" : 5126,
            "count" : 1680,
            "max" : [
                2.1028223037719727,
                1.0877220630645752,
                1.2309849262237549
            ],
            "min" : [
                -2.4016146659851074,
                -0.985485315322876,
                -2.552999496459961
            ],
            "type" : "VEC3"
        },
        {
            "bufferView" : 5,
            "componentType" : 5126,
            "count" : 1680,
            "type" : "VEC3"
        },
        {
            "bufferView" : 6,
            "componentType" : 5126,
            "count" : 1680,
            "type" : "VEC2"
        },
        {
            "bufferView" : 7,
            "componentType" : 5126,
            "count" : 1680,
            "max" : [
                2.1028223037719727,
                1.0877220630645752,
                1.2309849262237549
            ],
            "min" : [
                -2.4016146659851074,
                -0.985485315322876,
                -2.552999496459961
            ],
            "type" : "VEC3"
        },
        {
            "bufferView" : 8,
            "componentType" : 5126,
            "count" : 1680,
            "type" : "VEC3"
        },
        {
            "bufferView" : 9,
            "componentType" : 5126,
            "count" : 1680,
            "type" : "VEC2"
        },
        {
            "bufferView" : 10,
            "componentType" : 5126,
            "count" : 1680,
            "max" : [
                2.1028223037719727,
                1.0877220630645752,
                1.2309849262237549
            ],
            "min" : [
                -2.4016146659851074,
                -0.985485315322876,
                -2.552999496459961
            ],
            "type" : "VEC3"
        },
        {
            "bufferView" : 11,
            "componentType" : 5126,
            "count" : 1680,
            "type" : "VEC3"
        },
        {
            "bufferView" : 12,
            "componentType" : 5126,
            "count" : 1680,
            "type" : "VEC2"
        }
    ],
    "bufferViews" : [
        {
            "buffer" : 0,
            "byteLength" : 20160,
            "byteOffset" : 0
        },
        {
            "buffer" : 0,
            "byteLength" : 20160,
            "byteOffset" : 20160
        },
        {
            "buffer" : 0,
            "byteLength" : 13440,
            "byteOffset" : 40320
        },
        {
            "buffer" : 0,
            "byteLength" : 3360,
            "byteOffset" : 53760
        },
        {
            "buffer" : 0,
            "byteLength" : 20160,
            "byteOffset" : 57120
        },
        {
            "buffer" : 0,
            "byteLength" : 20160,
            "byteOffset" : 77280
        },
        {
            "buffer" : 0,
            "byteLength" : 13440,
            "byteOffset" : 97440
        },
        {
            "buffer" : 0,
            "byteLength" : 20160,
            "byteOffset" : 110880
        },
        {
            "buffer" : 0,
            "byteLength" : 20160,
            "byteOffset" : 131040
        },
        {
            "buffer" : 0,
            "byteLength" : 13440,
            "byteOffset" : 151200
        },
        {
            "buffer" : 0,
            "byteLength" : 20160,
            "byteOffset" : 164640
        },
        {
            "buffer" : 0,
            "byteLength" : 20160,
            "byteOffset" : 184800
        },
        {
            "buffer" : 0,
            "byteLength" : 13440,
            "byteOffset" : 204960
        }
    ],
    "buffers" : [
        {
            "byteLength" : 218400,
            "uri" : "data:application/octet-stream;base64,"
        }
    ]
}
