{
    "asset" : {
        "generator" : "Khronos glTF Blender I/O v1.8.19",
        "version" : "2.0"
    },
    "scene" : 0,
    "scenes" : [
        {
            "name" : "Scene",
            "nodes" : [
                0
            ]
        }
    ],
    "nodes" : [
        {
            "mesh" : 0,
            "name" : "Ustore",
            "scale" : [
                15.25,
                16.09998321533203,
                16.200000762939453
            ],
            "translation" : [
                -15.30752944946289,
                16,
                -41
            ]
        }
    ],
    "materials" : [
        {
            "doubleSided" : true,
            "name" : "Material.011",
            "pbrMetallicRoughness" : {
                "baseColorFactor" : [
                    0.04516932740807533,
                    0.05359604209661484,
                    0.049473006278276443,
                    1
                ],
                "metallicFactor" : 0,
                "roughnessFactor" : 0.4000000059604645
            }
        },
        {
            "doubleSided" : true,
            "name" : "Glass.003",
            "pbrMetallicRoughness" : {}
        },
        {
            "doubleSided" : true,
            "name" : "White Brick",
            "pbrMetallicRoughness" : {
                "metallicFactor" : 0,
                "roughnessFactor" : 0.5
            }
        },
        {
            "doubleSided" : true,
            "name" : "Brown",
            "pbrMetallicRoughness" : {
                "baseColorFactor" : [
                    0.048221051692962646,
                    0.019325898960232735,
                    0.023865973576903343,
                    1
                ],
                "metallicFactor" : 0,
                "roughnessFactor" : 0.5
            }
        },
        {
            "doubleSided" : true,
            "name" : "Window.001",
            "pbrMetallicRoughness" : {
                "baseColorFactor" : [
                    0.04823026806116104,
                    0.04823026806116104,
                    0.04823026806116104,
                    1
                ],
                "metallicFactor" : 0,
                "roughnessFactor" : 0.5
            }
        },
        {
            "doubleSided" : true,
            "name" : "Red Orange",
            "pbrMetallicRoughness" : {
                "baseColorFactor" : [
                    0.17058967053890228,
                    0.0319783091545105,
                    0.00506600271910429,
                    1
                ],
                "metallicFactor" : 0,
                "roughnessFactor" : 0.5
            }
        },
        {
            "doubleSided" : true,
            "name" : "Black.001",
            "pbrMetallicRoughness" : {
                "baseColorFactor" : [
                    0.0017997337272390723,
                    0.0017997337272390723,
                    0.0017997337272390723,
                    1
                ],
                "metallicFactor" : 0,
                "roughnessFactor" : 0.5
            }
        },
        {
            "doubleSided" : true,
            "name" : "Translucent",
            "pbrMetallicRoughness" : {}
        },
        {
            "doubleSided" : true,
            "name" : "White.001",
            "pbrMetallicRoughness" : {
                "baseColorFactor" : [
                    0.800000011920929,
                    0.800000011920929,
                    0.800000011920929,
                    1
                ],
                "metallicFactor" : 0,
                "roughnessFactor" : 0.5
            }
        }
    ],
    "meshes" : [
        {
            "name" : "Cube.005",
            "primitives" : [
                {
                    "attributes" : {
                        "POSITION" : 0,
                        "NORMAL" : 1,
                        "TEXCOORD_0" : 2
                    },
                    "indices" : 3,
                    "material" : 0
                },
                {
                    "attributes" : {
                        "POSITION" : 4,
                        "NORMAL" : 5,
                        "TEXCOORD_0" : 6
                    },
                    "indices" : 7,
                    "material" : 1
                },
                {
                    "attributes" : {
                        "POSITION" : 8,
                        "NORMAL" : 9,
                        "TEXCOORD_0" : 10
                    },
                    "indices" : 11,
                    "material" : 2
                },
                {
                    "attributes" : {
                        "POSITION" : 12,
                        "NORMAL" : 13,
                        "TEXCOORD_0" : 14
                    },
                    "indices" : 15,
                    "material" : 3
                },
                {
                    "attributes" : {
                        "POSITION" : 16,
                        "NORMAL" : 17,
                        "TEXCOORD_0" : 18
                    },
                    "indices" : 19,
                    "material" : 4
                },
                {
                    "attributes" : {
                        "POSITION" : 20,
                        "NORMAL" : 21,
                        "TEXCOORD_0" : 22
                    },
                    "indices" : 23,
                    "material" : 5
                },
                {
                    "attributes" : {
                        "POSITION" : 24,
                        "NORMAL" : 25,
                        "TEXCOORD_0" : 26
                    },
                    "indices" : 27,
                    "material" : 6
                },
                {
                    "attributes" : {
                        "POSITION" : 28,
                        "NORMAL" : 29,
                        "TEXCOORD_0" : 30
                    },
                    "indices" : 31,
                    "material" : 7
                },
                {
                    "attributes" : {
                        "POSITION" : 32,
                        "NORMAL" : 33,
                        "TEXCOORD_0" : 34
                    },
                    "indices" : 35,
                    "material" : 8
                }
            ]
        }
    ],
    "accessors" : [
        {
            "bufferView" : 0,
            "componentType" : 5126,
            "count" : 6944,
            "max" : [
                1.2163524627685547,
                1.194213628768921,
                1
            ],
            "min" : [
                -1,
                -1,
                -1
            ],
            "type" : "VEC3"
        },
        {
            "bufferView" : 1,
            "componentType" : 5126,
            "count" : 6944,
            "type" : "VEC3"
        },
        {
            "bufferView" : 2,
            "componentType" : 5126,
            "count" : 6944,
            "type" : "VEC2"
        },
        {
            "bufferView" : 3,
            "componentType" : 5123,
            "count" : 11709,
            "type" : "SCALAR"
        },
        {
            "bufferView" : 4,
            "componentType" : 5126,
            "count" : 72,
            "max" : [
                0.6347888708114624,
                -0.12757141888141632,
                0.5187392234802246
            ],
            "min" : [
                0.2559760808944702,
                -0.8681775331497192,
                -0.14268702268600464
            ],
            "type" : "VEC3"
        },
        {
            "bufferView" : 5,
            "componentType" : 5126,
            "count" : 72,
            "type" : "VEC3"
        },
        {
            "bufferView" : 6,
            "componentType" : 5126,
            "count" : 72,
            "type" : "VEC2"
        },
        {
            "bufferView" : 7,
            "componentType" : 5123,
            "count" : 126,
            "type" : "SCALAR"
        },
        {
            "bufferView" : 8,
            "componentType" : 5126,
            "count" : 1458,
            "max" : [
                1.2163524627685547,
                -0.08580292016267776,
                -0.1571369469165802
            ],
            "min" : [
                1,
                -1,
                -0.9046880006790161
            ],
            "type" : "VEC3"
        },
        {
            "bufferView" : 9,
            "componentType" : 5126,
            "count" : 1458,
            "type" : "VEC3"
        },
        {
            "bufferView" : 10,
            "componentType" : 5126,
            "count" : 1458,
            "type" : "VEC2"
        },
        {
            "bufferView" : 11,
            "componentType" : 5123,
            "count" : 1596,
            "type" : "SCALAR"
        },
        {
            "bufferView" : 12,
            "componentType" : 5126,
            "count" : 10,
            "max" : [
                0.9722604155540466,
                -0.2919715940952301,
                0.9365739822387695
            ],
            "min" : [
                0.5923766493797302,
                -1,
                0.7088837027549744
            ],
            "type" : "VEC3"
        },
        {
            "bufferView" : 13,
            "componentType" : 5126,
            "count" : 10,
            "type" : "VEC3"
        },
        {
            "bufferView" : 14,
            "componentType" : 5126,
            "count" : 10,
            "type" : "VEC2"
        },
        {
            "bufferView" : 15,
            "componentType" : 5123,
            "count" : 18,
            "type" : "SCALAR"
        },
        {
            "bufferView" : 16,
            "componentType" : 5126,
            "count" : 557,
            "max" : [
                1.065703272819519,
                0.9507806301116943,
                0.669754683971405
            ],
            "min" : [
                0.8750594258308411,
                -0.07755815982818604,
                -0.67072993516922
            ],
            "type" : "VEC3"
        },
        {
            "bufferView" : 17,
            "componentType" : 5126,
            "count" : 557,
            "type" : "VEC3"
        },
        {
            "bufferView" : 18,
            "componentType" : 5126,
            "count" : 557,
            "type" : "VEC2"
        },
        {
            "bufferView" : 19,
            "componentType" : 5123,
            "count" : 732,
            "type" : "SCALAR"
        },
        {
            "bufferView" : 20,
            "componentType" : 5126,
            "count" : 526,
            "max" : [
                1.065703272819519,
                0.9507806301116943,
                0.669754683971405
            ],
            "min" : [
                0.8578912019729614,
                -0.07755815982818604,
                -0.67072993516922
            ],
            "type" : "VEC3"
        },
        {
            "bufferView" : 21,
            "componentType" : 5126,
            "count" : 526,
            "type" : "VEC3"
        },
        {
            "bufferView" : 22,
            "componentType" : 5126,
            "count" : 526,
            "type" : "VEC2"
        },
        {
            "bufferView" : 23,
            "componentType" : 5123,
            "count" : 798,
            "type" : "SCALAR"
        },
        {
            "bufferView" : 24,
            "componentType" : 5126,
            "count" : 182,
            "max" : [
                1.065703272819519,
                0.9507806301116943,
                0.669754683971405
            ],
            "min" : [
                0.8820109963417053,
                -0.07694438844919205,
                -0.67072993516922
            ],
            "type" : "VEC3"
        },
        {
            "bufferView" : 25,
            "componentType" : 5126,
            "count" : 182,
            "type" : "VEC3"
        },
        {
            "bufferView" : 26,
            "componentType" : 5126,
            "count" : 182,
            "type" : "VEC2"
        },
        {
            "bufferView" : 27,
            "componentType" : 5123,
            "count" : 348,
            "type" : "SCALAR"
        },
        {
            "bufferView" : 28,
            "componentType" : 5126,
            "count" : 22,
            "max" : [
                1,
                -0.2919715940952301,
                -0.2552785277366638
            ],
            "min" : [
                1,
                -1,
                -0.8092137575149536
            ],
            "type" : "VEC3"
        },
        {
            "bufferView" : 29,
            "componentType" : 5126,
            "count" : 22,
            "type" : "VEC3"
        },
        {
            "bufferView" : 30,
            "componentType" : 5126,
            "count" : 22,
            "type" : "VEC2"
        },
        {
            "bufferView" : 31,
            "componentType" : 5123,
            "count" : 48,
            "type" : "SCALAR"
        },
        {
            "bufferView" : 32,
            "componentType" : 5126,
            "count" : 3020,
            "max" : [
                1.0464431047439575,
                -0.08533017337322235,
                0.5384618639945984
            ],
            "min" : [
                0.6211872100830078,
                -0.8681775331497192,
                -0.67072993516922
            ],
            "type" : "VEC3"
        },
        {
            "bufferView" : 33,
            "componentType" : 5126,
            "count" : 3020,
            "type" : "VEC3"
        },
        {
            "bufferView" : 34,
            "componentType" : 5126,
            "count" : 3020,
            "type" : "VEC2"
        },
        {
            "bufferView" : 35,
            "componentType" : 5123,
            "count" : 3729,
            "type" : "SCALAR"
        }
    ],
    "bufferViews" : [
        {
            "buffer" : 0,
            "byteLength" : 83328,
            "byteOffset" : 0
        },
        {
            "buffer" : 0,
            "byteLength" : 83328,
            "byteOffset" : 83328
        },
        {
            "buffer" : 0,
            "byteLength" : 55552,
            "byteOffset" : 166656
        },
        {
            "buffer" : 0,
            "byteLength" : 23418,
            "byteOffset" : 222208
        },
        {
            "buffer" : 0,
            "byteLength" : 864,
            "byteOffset" : 245628
        },
        {
            "buffer" : 0,
            "byteLength" : 864,
            "byteOffset" : 246492
        },
        {
            "buffer" : 0,
            "byteLength" : 576,
            "byteOffset" : 247356
        },
        {
            "buffer" : 0,
            "byteLength" : 252,
            "byteOffset" : 247932
        },
        {
            "buffer" : 0,
            "byteLength" : 17496,
            "byteOffset" : 248184
        },
        {
            "buffer" : 0,
            "byteLength" : 17496,
            "byteOffset" : 265680
        },
        {
            "buffer" : 0,
            "byteLength" : 11664,
            "byteOffset" : 283176
        },
        {
            "buffer" : 0,
            "byteLength" : 3192,
            "byteOffset" : 294840
        },
        {
            "buffer" : 0,
            "byteLength" : 120,
            "byteOffset" : 298032
        },
        {
            "buffer" : 0,
            "byteLength" : 120,
            "byteOffset" : 298152
        },
        {
            "buffer" : 0,
            "byteLength" : 80,
            "byteOffset" : 298272
        },
        {
            "buffer" : 0,
            "byteLength" : 36,
            "byteOffset" : 298352
        },
        {
            "buffer" : 0,
            "byteLength" : 6684,
            "byteOffset" : 298388
        },
        {
            "buffer" : 0,
            "byteLength" : 6684,
            "byteOffset" : 305072
        },
        {
            "buffer" : 0,
            "byteLength" : 4456,
            "byteOffset" : 311756
        },
        {
            "buffer" : 0,
            "byteLength" : 1464,
            "byteOffset" : 316212
        },
        {
            "buffer" : 0,
            "byteLength" : 6312,
            "byteOffset" : 317676
        },
        {
            "buffer" : 0,
            "byteLength" : 6312,
            "byteOffset" : 323988
        },
        {
            "buffer" : 0,
            "byteLength" : 4208,
            "byteOffset" : 330300
        },
        {
            "buffer" : 0,
            "byteLength" : 1596,
            "byteOffset" : 334508
        },
        {
            "buffer" : 0,
            "byteLength" : 2184,
            "byteOffset" : 336104
        },
        {
            "buffer" : 0,
            "byteLength" : 2184,
            "byteOffset" : 338288
        },
        {
            "buffer" : 0,
            "byteLength" : 1456,
            "byteOffset" : 340472
        },
        {
            "buffer" : 0,
            "byteLength" : 696,
            "byteOffset" : 341928
        },
        {
            "buffer" : 0,
            "byteLength" : 264,
            "byteOffset" : 342624
        },
        {
            "buffer" : 0,
            "byteLength" : 264,
            "byteOffset" : 342888
        },
        {
            "buffer" : 0,
            "byteLength" : 176,
            "byteOffset" : 343152
        },
        {
            "buffer" : 0,
            "byteLength" : 96,
            "byteOffset" : 343328
        },
        {
            "buffer" : 0,
            "byteLength" : 36240,
            "byteOffset" : 343424
        },
        {
            "buffer" : 0,
            "byteLength" : 36240,
            "byteOffset" : 379664
        },
        {
            "buffer" : 0,
            "byteLength" : 24160,
            "byteOffset" : 415904
        },
        {
            "buffer" : 0,
            "byteLength" : 7458,
            "byteOffset" : 440064
        }
    ],
    "buffers" : [
        {
            "byteLength" : 447524,
            "uri" : "data:application/octet-stream;base64,"
        }
    ]
}
