{
    "asset" : {
        "generator" : "Khronos glTF Blender I/O v1.8.19",
        "version" : "2.0"
    },
    "extensionsUsed" : [
        "KHR_materials_transmission"
    ],
    "scene" : 0,
    "scenes" : [
        {
            "name" : "Scene",
            "nodes" : [
                0
            ]
        }
    ],
    "nodes" : [
        {
            "mesh" : 0,
            "name" : "Starbucks",
            "rotation" : [
                0,
                -0.7071068286895752,
                0,
                0.7071068286895752
            ],
            "scale" : [
                13.313362121582031,
                -7.774979591369629,
                0.3211654722690582
            ],
            "translation" : [
                -47.276947021484375,
                16.303136825561523,
                82.96778106689453
            ]
        }
    ],
    "materials" : [
        {
            "doubleSided" : true,
            "name" : "Building Color.001",
            "pbrMetallicRoughness" : {
                "baseColorFactor" : [
                    0.800000011920929,
                    0.800000011920929,
                    0.800000011920929,
                    1
                ],
                "metallicFactor" : 0,
                "roughnessFactor" : 0.5
            }
        },
        {
            "doubleSided" : true,
            "name" : "Outline Color.001",
            "pbrMetallicRoughness" : {
                "baseColorFactor" : [
                    0,
                    0,
                    0,
                    1
                ],
                "metallicFactor" : 0,
                "roughnessFactor" : 0.5
            }
        },
        {
            "doubleSided" : true,
            "name" : "Font Color.001",
            "pbrMetallicRoughness" : {
                "baseColorFactor" : [
                    0.000807669828645885,
                    0.026293449103832245,
                    0.0008513135253451765,
                    1
                ],
                "metallicFactor" : 0,
                "roughnessFactor" : 0.5
            }
        },
        {
            "doubleSided" : true,
            "name" : "Window.003",
            "pbrMetallicRoughness" : {
                "baseColorFactor" : [
                    0.005980477202683687,
                    0.002997677307575941,
                    0.00039455463411286473,
                    1
                ],
                "metallicFactor" : 0,
                "roughnessFactor" : 0.5
            }
        },
        {
            "alphaMode" : "BLEND",
            "doubleSided" : true,
            "extensions" : {
                "KHR_materials_transmission" : {
                    "transmissionFactor" : 1
                }
            },
            "name" : "GlassAlpha",
            "pbrMetallicRoughness" : {
                "baseColorFactor" : [
                    0.800000011920929,
                    0.800000011920929,
                    0.800000011920929,
                    0.3499999940395355
                ],
                "metallicFactor" : 0,
                "roughnessFactor" : 0.5
            }
        }
    ],
    "meshes" : [
        {
            "name" : "Cube.008",
            "primitives" : [
                {
                    "attributes" : {
                        "POSITION" : 0,
                        "NORMAL" : 1,
                        "TEXCOORD_0" : 2
                    },
                    "indices" : 3,
                    "material" : 0
                },
                {
                    "attributes" : {
                        "POSITION" : 4,
                        "NORMAL" : 5,
                        "TEXCOORD_0" : 6
                    },
                    "indices" : 7,
                    "material" : 1
                },
                {
                    "attributes" : {
                        "POSITION" : 8,
                        "NORMAL" : 9,
                        "TEXCOORD_0" : 10
                    },
                    "indices" : 11,
                    "material" : 2
                },
                {
                    "attributes" : {
                        "POSITION" : 12,
                        "NORMAL" : 13,
                        "TEXCOORD_0" : 14
                    },
                    "indices" : 15,
                    "material" : 3
                },
                {
                    "attributes" : {
                        "POSITION" : 16,
                        "NORMAL" : 17,
                        "TEXCOORD_0" : 18
                    },
                    "indices" : 19,
                    "material" : 4
                }
            ]
        }
    ],
    "accessors" : [
        {
            "bufferView" : 0,
            "componentType" : 5126,
            "count" : 2664,
            "max" : [
                0.9957644939422607,
                2.0896155834198,
                48.51880645751953
            ],
            "min" : [
                -1.3581523895263672,
                -2.089615821838379,
                -50.12527084350586
            ],
            "type" : "VEC3"
        },
        {
            "bufferView" : 1,
            "componentType" : 5126,
            "count" : 2664,
            "type" : "VEC3"
        },
        {
            "bufferView" : 2,
            "componentType" : 5126,
            "count" : 2664,
            "type" : "VEC2"
        },
        {
            "bufferView" : 3,
            "componentType" : 5123,
            "count" : 6828,
            "type" : "SCALAR"
        },
        {
            "bufferView" : 4,
            "componentType" : 5126,
            "count" : 1169,
            "max" : [
                0.9957644939422607,
                2.0896155834198,
                48.51880645751953
            ],
            "min" : [
                -1.3581523895263672,
                -2.089615821838379,
                -50.27155685424805
            ],
            "type" : "VEC3"
        },
        {
            "bufferView" : 5,
            "componentType" : 5126,
            "count" : 1169,
            "type" : "VEC3"
        },
        {
            "bufferView" : 6,
            "componentType" : 5126,
            "count" : 1169,
            "type" : "VEC2"
        },
        {
            "bufferView" : 7,
            "componentType" : 5123,
            "count" : 2073,
            "type" : "SCALAR"
        },
        {
            "bufferView" : 8,
            "componentType" : 5126,
            "count" : 9227,
            "max" : [
                -0.04352855682373047,
                0.7676963806152344,
                -48.85249328613281
            ],
            "min" : [
                -0.5219681859016418,
                0.46167421340942383,
                -49.30349349975586
            ],
            "type" : "VEC3"
        },
        {
            "bufferView" : 9,
            "componentType" : 5126,
            "count" : 9227,
            "type" : "VEC3"
        },
        {
            "bufferView" : 10,
            "componentType" : 5126,
            "count" : 9227,
            "type" : "VEC2"
        },
        {
            "bufferView" : 11,
            "componentType" : 5123,
            "count" : 10536,
            "type" : "SCALAR"
        },
        {
            "bufferView" : 12,
            "componentType" : 5126,
            "count" : 4193,
            "max" : [
                0.3320907950401306,
                0.06919127702713013,
                -48.59654998779297
            ],
            "min" : [
                -0.774433434009552,
                -1.3700567483901978,
                -53.55651092529297
            ],
            "type" : "VEC3"
        },
        {
            "bufferView" : 13,
            "componentType" : 5126,
            "count" : 4193,
            "type" : "VEC3"
        },
        {
            "bufferView" : 14,
            "componentType" : 5126,
            "count" : 4193,
            "type" : "VEC2"
        },
        {
            "bufferView" : 15,
            "componentType" : 5123,
            "count" : 7926,
            "type" : "SCALAR"
        },
        {
            "bufferView" : 16,
            "componentType" : 5126,
            "count" : 614,
            "max" : [
                0.295529305934906,
                1.6881589889526367,
                24.770235061645508
            ],
            "min" : [
                -1.3012399673461914,
                -0.9750177264213562,
                -52.57209777832031
            ],
            "type" : "VEC3"
        },
        {
            "bufferView" : 17,
            "componentType" : 5126,
            "count" : 614,
            "type" : "VEC3"
        },
        {
            "bufferView" : 18,
            "componentType" : 5126,
            "count" : 614,
            "type" : "VEC2"
        },
        {
            "bufferView" : 19,
            "componentType" : 5123,
            "count" : 852,
            "type" : "SCALAR"
        }
    ],
    "bufferViews" : [
        {
            "buffer" : 0,
            "byteLength" : 31968,
            "byteOffset" : 0
        },
        {
            "buffer" : 0,
            "byteLength" : 31968,
            "byteOffset" : 31968
        },
        {
            "buffer" : 0,
            "byteLength" : 21312,
            "byteOffset" : 63936
        },
        {
            "buffer" : 0,
            "byteLength" : 13656,
            "byteOffset" : 85248
        },
        {
            "buffer" : 0,
            "byteLength" : 14028,
            "byteOffset" : 98904
        },
        {
            "buffer" : 0,
            "byteLength" : 14028,
            "byteOffset" : 112932
        },
        {
            "buffer" : 0,
            "byteLength" : 9352,
            "byteOffset" : 126960
        },
        {
            "buffer" : 0,
            "byteLength" : 4146,
            "byteOffset" : 136312
        },
        {
            "buffer" : 0,
            "byteLength" : 110724,
            "byteOffset" : 140460
        },
        {
            "buffer" : 0,
            "byteLength" : 110724,
            "byteOffset" : 251184
        },
        {
            "buffer" : 0,
            "byteLength" : 73816,
            "byteOffset" : 361908
        },
        {
            "buffer" : 0,
            "byteLength" : 21072,
            "byteOffset" : 435724
        },
        {
            "buffer" : 0,
            "byteLength" : 50316,
            "byteOffset" : 456796
        },
        {
            "buffer" : 0,
            "byteLength" : 50316,
            "byteOffset" : 507112
        },
        {
            "buffer" : 0,
            "byteLength" : 33544,
            "byteOffset" : 557428
        },
        {
            "buffer" : 0,
            "byteLength" : 15852,
            "byteOffset" : 590972
        },
        {
            "buffer" : 0,
            "byteLength" : 7368,
            "byteOffset" : 606824
        },
        {
            "buffer" : 0,
            "byteLength" : 7368,
            "byteOffset" : 614192
        },
        {
            "buffer" : 0,
            "byteLength" : 4912,
            "byteOffset" : 621560
        },
        {
            "buffer" : 0,
            "byteLength" : 1704,
            "byteOffset" : 626472
        }
    ],
    "buffers" : [
        {
            "byteLength" : 628176,
            "uri" : "data:application/octet-stream;base64,"
        }
    ]
}
