{
    "asset" : {
        "generator" : "Khronos glTF Blender I/O v1.8.19",
        "version" : "2.0"
    },
    "scene" : 0,
    "scenes" : [
        {
            "name" : "Scene",
            "nodes" : [
                0
            ]
        }
    ],
    "nodes" : [
        {
            "mesh" : 0,
            "name" : "TrashCan"
        }
    ],
    "materials" : [
        {
            "doubleSided" : true,
            "name" : "Material.001",
            "pbrMetallicRoughness" : {}
        }
    ],
    "meshes" : [
        {
            "name" : "Cylinder.002",
            "primitives" : [
                {
                    "attributes" : {
                        "POSITION" : 0,
                        "NORMAL" : 1,
                        "TEXCOORD_0" : 2
                    },
                    "indices" : 3,
                    "material" : 0
                }
            ]
        }
    ],
    "accessors" : [
        {
            "bufferView" : 0,
            "componentType" : 5126,
            "count" : 4923,
            "max" : [
                1.2044222354888916,
                1.0327459573745728,
                1.2044222354888916
            ],
            "min" : [
                -1.2044222354888916,
                -1.626388430595398,
                -1.2044222354888916
            ],
            "type" : "VEC3"
        },
        {
            "bufferView" : 1,
            "componentType" : 5126,
            "count" : 4923,
            "type" : "VEC3"
        },
        {
            "bufferView" : 2,
            "componentType" : 5126,
            "count" : 4923,
            "type" : "VEC2"
        },
        {
            "bufferView" : 3,
            "componentType" : 5123,
            "count" : 7440,
            "type" : "SCALAR"
        }
    ],
    "bufferViews" : [
        {
            "buffer" : 0,
            "byteLength" : 59076,
            "byteOffset" : 0
        },
        {
            "buffer" : 0,
            "byteLength" : 59076,
            "byteOffset" : 59076
        },
        {
            "buffer" : 0,
            "byteLength" : 39384,
            "byteOffset" : 118152
        },
        {
            "buffer" : 0,
            "byteLength" : 14880,
            "byteOffset" : 157536
        }
    ],
    "buffers" : [
        {
            "byteLength" : 172416,
            "uri" : "data:application/octet-stream;base64,"
        }
    ]
}
