{
    "asset" : {
        "generator" : "Khronos glTF Blender I/O v1.8.19",
        "version" : "2.0"
    },
    "extensionsUsed" : [
        "KHR_materials_unlit"
    ],
    "scene" : 0,
    "scenes" : [
        {
            "name" : "Scene",
            "nodes" : [
                0
            ]
        }
    ],
    "nodes" : [
        {
            "mesh" : 0,
            "name" : "Cube",
            "scale" : [
                3.392103672027588,
                9.658754348754883,
                7.141254901885986
            ],
            "translation" : [
                0,
                9.659000396728516,
                0
            ]
        }
    ],
    "materials" : [
        {
            "doubleSided" : true,
            "name" : "Material.001",
            "pbrMetallicRoughness" : {}
        },
        {
            "doubleSided" : true,
            "name" : "Material.002",
            "pbrMetallicRoughness" : {
                "baseColorFactor" : [
                    0,
                    0,
                    0,
                    1
                ],
                "metallicFactor" : 0,
                "roughnessFactor" : 0.5
            }
        },
        {
            "doubleSided" : true,
            "name" : "window_glass.004",
            "pbrMetallicRoughness" : {}
        },
        {
            "doubleSided" : true,
            "extensions" : {
                "KHR_materials_unlit" : {}
            },
            "name" : "Material.005",
            "pbrMetallicRoughness" : {
                "baseColorFactor" : [
                    1,
                    0.9394495487213135,
                    0.8820595741271973,
                    1
                ],
                "metallicFactor" : 0,
                "roughnessFactor" : 0.9
            }
        },
        {
            "doubleSided" : true,
            "name" : "brick",
            "pbrMetallicRoughness" : {
                "metallicFactor" : 0,
                "roughnessFactor" : 0.5
            }
        }
    ],
    "meshes" : [
        {
            "name" : "Cube",
            "primitives" : [
                {
                    "attributes" : {
                        "POSITION" : 0,
                        "NORMAL" : 1,
                        "TEXCOORD_0" : 2
                    },
                    "indices" : 3,
                    "material" : 0
                },
                {
                    "attributes" : {
                        "POSITION" : 4,
                        "NORMAL" : 5,
                        "TEXCOORD_0" : 6
                    },
                    "indices" : 7,
                    "material" : 1
                },
                {
                    "attributes" : {
                        "POSITION" : 8,
                        "NORMAL" : 9,
                        "TEXCOORD_0" : 10
                    },
                    "indices" : 11,
                    "material" : 2
                },
                {
                    "attributes" : {
                        "POSITION" : 12,
                        "NORMAL" : 13,
                        "TEXCOORD_0" : 14
                    },
                    "indices" : 15,
                    "material" : 3
                },
                {
                    "attributes" : {
                        "POSITION" : 16,
                        "NORMAL" : 17,
                        "TEXCOORD_0" : 18
                    },
                    "indices" : 19,
                    "material" : 4
                }
            ]
        }
    ],
    "accessors" : [
        {
            "bufferView" : 0,
            "componentType" : 5126,
            "count" : 936,
            "max" : [
                1.229431390762329,
                3.7073216438293457,
                1.410082459449768
            ],
            "min" : [
                -1.3410887718200684,
                -1.031705379486084,
                -1.9665484428405762
            ],
            "type" : "VEC3"
        },
        {
            "bufferView" : 1,
            "componentType" : 5126,
            "count" : 936,
            "type" : "VEC3"
        },
        {
            "bufferView" : 2,
            "componentType" : 5126,
            "count" : 936,
            "type" : "VEC2"
        },
        {
            "bufferView" : 3,
            "componentType" : 5123,
            "count" : 1422,
            "type" : "SCALAR"
        },
        {
            "bufferView" : 4,
            "componentType" : 5126,
            "count" : 72,
            "max" : [
                1,
                0.2612743675708771,
                1.410082459449768
            ],
            "min" : [
                0.6589112281799316,
                -0.09785769134759903,
                -1.960763931274414
            ],
            "type" : "VEC3"
        },
        {
            "bufferView" : 5,
            "componentType" : 5126,
            "count" : 72,
            "type" : "VEC3"
        },
        {
            "bufferView" : 6,
            "componentType" : 5126,
            "count" : 72,
            "type" : "VEC2"
        },
        {
            "bufferView" : 7,
            "componentType" : 5123,
            "count" : 108,
            "type" : "SCALAR"
        },
        {
            "bufferView" : 8,
            "componentType" : 5126,
            "count" : 56,
            "max" : [
                0.8801273107528687,
                2.0397541522979736,
                1.0568506717681885
            ],
            "min" : [
                0.32917356491088867,
                -0.8941057920455933,
                -1.3781095743179321
            ],
            "type" : "VEC3"
        },
        {
            "bufferView" : 9,
            "componentType" : 5126,
            "count" : 56,
            "type" : "VEC3"
        },
        {
            "bufferView" : 10,
            "componentType" : 5126,
            "count" : 56,
            "type" : "VEC2"
        },
        {
            "bufferView" : 11,
            "componentType" : 5123,
            "count" : 84,
            "type" : "SCALAR"
        },
        {
            "bufferView" : 12,
            "componentType" : 5126,
            "count" : 88,
            "max" : [
                1.0581737756729126,
                2.092972755432129,
                1.410082459449768
            ],
            "min" : [
                0.6589112281799316,
                -1.031705379486084,
                -1.960763931274414
            ],
            "type" : "VEC3"
        },
        {
            "bufferView" : 13,
            "componentType" : 5126,
            "count" : 88,
            "type" : "VEC3"
        },
        {
            "bufferView" : 14,
            "componentType" : 5126,
            "count" : 88,
            "type" : "VEC2"
        },
        {
            "bufferView" : 15,
            "componentType" : 5123,
            "count" : 132,
            "type" : "SCALAR"
        },
        {
            "bufferView" : 16,
            "componentType" : 5126,
            "count" : 548,
            "max" : [
                1.1537349224090576,
                3.7073216438293457,
                1.410082459449768
            ],
            "min" : [
                -1.3410887718200684,
                0.36564838886260986,
                -1.960763931274414
            ],
            "type" : "VEC3"
        },
        {
            "bufferView" : 17,
            "componentType" : 5126,
            "count" : 548,
            "type" : "VEC3"
        },
        {
            "bufferView" : 18,
            "componentType" : 5126,
            "count" : 548,
            "type" : "VEC2"
        },
        {
            "bufferView" : 19,
            "componentType" : 5123,
            "count" : 858,
            "type" : "SCALAR"
        }
    ],
    "bufferViews" : [
        {
            "buffer" : 0,
            "byteLength" : 11232,
            "byteOffset" : 0
        },
        {
            "buffer" : 0,
            "byteLength" : 11232,
            "byteOffset" : 11232
        },
        {
            "buffer" : 0,
            "byteLength" : 7488,
            "byteOffset" : 22464
        },
        {
            "buffer" : 0,
            "byteLength" : 2844,
            "byteOffset" : 29952
        },
        {
            "buffer" : 0,
            "byteLength" : 864,
            "byteOffset" : 32796
        },
        {
            "buffer" : 0,
            "byteLength" : 864,
            "byteOffset" : 33660
        },
        {
            "buffer" : 0,
            "byteLength" : 576,
            "byteOffset" : 34524
        },
        {
            "buffer" : 0,
            "byteLength" : 216,
            "byteOffset" : 35100
        },
        {
            "buffer" : 0,
            "byteLength" : 672,
            "byteOffset" : 35316
        },
        {
            "buffer" : 0,
            "byteLength" : 672,
            "byteOffset" : 35988
        },
        {
            "buffer" : 0,
            "byteLength" : 448,
            "byteOffset" : 36660
        },
        {
            "buffer" : 0,
            "byteLength" : 168,
            "byteOffset" : 37108
        },
        {
            "buffer" : 0,
            "byteLength" : 1056,
            "byteOffset" : 37276
        },
        {
            "buffer" : 0,
            "byteLength" : 1056,
            "byteOffset" : 38332
        },
        {
            "buffer" : 0,
            "byteLength" : 704,
            "byteOffset" : 39388
        },
        {
            "buffer" : 0,
            "byteLength" : 264,
            "byteOffset" : 40092
        },
        {
            "buffer" : 0,
            "byteLength" : 6576,
            "byteOffset" : 40356
        },
        {
            "buffer" : 0,
            "byteLength" : 6576,
            "byteOffset" : 46932
        },
        {
            "buffer" : 0,
            "byteLength" : 4384,
            "byteOffset" : 53508
        },
        {
            "buffer" : 0,
            "byteLength" : 1716,
            "byteOffset" : 57892
        }
    ],
    "buffers" : [
        {
            "byteLength" : 59608,
            "uri" : "data:application/octet-stream;base64,"
        }
    ]
}
