{
    "asset" : {
        "generator" : "Khronos glTF Blender I/O v1.8.19",
        "version" : "2.0"
    },
    "extensionsUsed" : [
        "KHR_materials_unlit"
    ],
    "scene" : 0,
    "scenes" : [
        {
            "name" : "Scene",
            "nodes" : [
                0
            ]
        }
    ],
    "nodes" : [
        {
            "mesh" : 0,
            "name" : "Tacoria",
            "scale" : [
                3.392103672027588,
                9.658754348754883,
                7.141254901885986
            ],
            "translation" : [
                -3.0746889114379883,
                10,
                -11
            ]
        }
    ],
    "materials" : [
        {
            "doubleSided" : true,
            "name" : "Material.012",
            "pbrMetallicRoughness" : {}
        },
        {
            "doubleSided" : true,
            "name" : "Material.013",
            "pbrMetallicRoughness" : {
                "baseColorFactor" : [
                    0,
                    0,
                    0,
                    1
                ],
                "metallicFactor" : 0,
                "roughnessFactor" : 0.5
            }
        },
        {
            "doubleSided" : true,
            "name" : "window_glass.001",
            "pbrMetallicRoughness" : {}
        },
        {
            "doubleSided" : true,
            "extensions" : {
                "KHR_materials_unlit" : {}
            },
            "name" : "Material.014",
            "pbrMetallicRoughness" : {
                "baseColorFactor" : [
                    1,
                    0.9394495487213135,
                    0.8820595741271973,
                    1
                ],
                "metallicFactor" : 0,
                "roughnessFactor" : 0.9
            }
        },
        {
            "doubleSided" : true,
            "name" : "brick.001",
            "pbrMetallicRoughness" : {
                "metallicFactor" : 0,
                "roughnessFactor" : 0.5
            }
        }
    ],
    "meshes" : [
        {
            "name" : "Cube.006",
            "primitives" : [
                {
                    "attributes" : {
                        "POSITION" : 0,
                        "NORMAL" : 1,
                        "TEXCOORD_0" : 2
                    },
                    "indices" : 3,
                    "material" : 0
                },
                {
                    "attributes" : {
                        "POSITION" : 4,
                        "NORMAL" : 5,
                        "TEXCOORD_0" : 6
                    },
                    "indices" : 7,
                    "material" : 1
                },
                {
                    "attributes" : {
                        "POSITION" : 8,
                        "NORMAL" : 9,
                        "TEXCOORD_0" : 10
                    },
                    "indices" : 11,
                    "material" : 2
                },
                {
                    "attributes" : {
                        "POSITION" : 12,
                        "NORMAL" : 13,
                        "TEXCOORD_0" : 14
                    },
                    "indices" : 15,
                    "material" : 3
                },
                {
                    "attributes" : {
                        "POSITION" : 16,
                        "NORMAL" : 17,
                        "TEXCOORD_0" : 18
                    },
                    "indices" : 19,
                    "material" : 4
                }
            ]
        }
    ],
    "accessors" : [
        {
            "bufferView" : 0,
            "componentType" : 5126,
            "count" : 1334,
            "max" : [
                1.229431390762329,
                3.7073216438293457,
                1.410082459449768
            ],
            "min" : [
                -1.3410887718200684,
                -1.031705379486084,
                -1.9665484428405762
            ],
            "type" : "VEC3"
        },
        {
            "bufferView" : 1,
            "componentType" : 5126,
            "count" : 1334,
            "type" : "VEC3"
        },
        {
            "bufferView" : 2,
            "componentType" : 5126,
            "count" : 1334,
            "type" : "VEC2"
        },
        {
            "bufferView" : 3,
            "componentType" : 5123,
            "count" : 1422,
            "type" : "SCALAR"
        },
        {
            "bufferView" : 4,
            "componentType" : 5126,
            "count" : 106,
            "max" : [
                1,
                0.2612743675708771,
                1.410082459449768
            ],
            "min" : [
                0.6589112281799316,
                -0.09785769134759903,
                -1.960763931274414
            ],
            "type" : "VEC3"
        },
        {
            "bufferView" : 5,
            "componentType" : 5126,
            "count" : 106,
            "type" : "VEC3"
        },
        {
            "bufferView" : 6,
            "componentType" : 5126,
            "count" : 106,
            "type" : "VEC2"
        },
        {
            "bufferView" : 7,
            "componentType" : 5123,
            "count" : 108,
            "type" : "SCALAR"
        },
        {
            "bufferView" : 8,
            "componentType" : 5126,
            "count" : 80,
            "max" : [
                0.8801273107528687,
                2.0397541522979736,
                1.0568506717681885
            ],
            "min" : [
                0.32917356491088867,
                -0.8941057920455933,
                -1.3781095743179321
            ],
            "type" : "VEC3"
        },
        {
            "bufferView" : 9,
            "componentType" : 5126,
            "count" : 80,
            "type" : "VEC3"
        },
        {
            "bufferView" : 10,
            "componentType" : 5126,
            "count" : 80,
            "type" : "VEC2"
        },
        {
            "bufferView" : 11,
            "componentType" : 5123,
            "count" : 84,
            "type" : "SCALAR"
        },
        {
            "bufferView" : 12,
            "componentType" : 5126,
            "count" : 132,
            "max" : [
                1.0581737756729126,
                2.092972755432129,
                1.410082459449768
            ],
            "min" : [
                0.6589112281799316,
                -1.031705379486084,
                -1.960763931274414
            ],
            "type" : "VEC3"
        },
        {
            "bufferView" : 13,
            "componentType" : 5126,
            "count" : 132,
            "type" : "VEC3"
        },
        {
            "bufferView" : 14,
            "componentType" : 5126,
            "count" : 132,
            "type" : "VEC2"
        },
        {
            "bufferView" : 15,
            "componentType" : 5123,
            "count" : 132,
            "type" : "SCALAR"
        },
        {
            "bufferView" : 16,
            "componentType" : 5126,
            "count" : 779,
            "max" : [
                1.1537349224090576,
                3.7073216438293457,
                1.410082459449768
            ],
            "min" : [
                -1.3410887718200684,
                0.36564838886260986,
                -1.960763931274414
            ],
            "type" : "VEC3"
        },
        {
            "bufferView" : 17,
            "componentType" : 5126,
            "count" : 779,
            "type" : "VEC3"
        },
        {
            "bufferView" : 18,
            "componentType" : 5126,
            "count" : 779,
            "type" : "VEC2"
        },
        {
            "bufferView" : 19,
            "componentType" : 5123,
            "count" : 858,
            "type" : "SCALAR"
        }
    ],
    "bufferViews" : [
        {
            "buffer" : 0,
            "byteLength" : 16008,
            "byteOffset" : 0
        },
        {
            "buffer" : 0,
            "byteLength" : 16008,
            "byteOffset" : 16008
        },
        {
            "buffer" : 0,
            "byteLength" : 10672,
            "byteOffset" : 32016
        },
        {
            "buffer" : 0,
            "byteLength" : 2844,
            "byteOffset" : 42688
        },
        {
            "buffer" : 0,
            "byteLength" : 1272,
            "byteOffset" : 45532
        },
        {
            "buffer" : 0,
            "byteLength" : 1272,
            "byteOffset" : 46804
        },
        {
            "buffer" : 0,
            "byteLength" : 848,
            "byteOffset" : 48076
        },
        {
            "buffer" : 0,
            "byteLength" : 216,
            "byteOffset" : 48924
        },
        {
            "buffer" : 0,
            "byteLength" : 960,
            "byteOffset" : 49140
        },
        {
            "buffer" : 0,
            "byteLength" : 960,
            "byteOffset" : 50100
        },
        {
            "buffer" : 0,
            "byteLength" : 640,
            "byteOffset" : 51060
        },
        {
            "buffer" : 0,
            "byteLength" : 168,
            "byteOffset" : 51700
        },
        {
            "buffer" : 0,
            "byteLength" : 1584,
            "byteOffset" : 51868
        },
        {
            "buffer" : 0,
            "byteLength" : 1584,
            "byteOffset" : 53452
        },
        {
            "buffer" : 0,
            "byteLength" : 1056,
            "byteOffset" : 55036
        },
        {
            "buffer" : 0,
            "byteLength" : 264,
            "byteOffset" : 56092
        },
        {
            "buffer" : 0,
            "byteLength" : 9348,
            "byteOffset" : 56356
        },
        {
            "buffer" : 0,
            "byteLength" : 9348,
            "byteOffset" : 65704
        },
        {
            "buffer" : 0,
            "byteLength" : 6232,
            "byteOffset" : 75052
        },
        {
            "buffer" : 0,
            "byteLength" : 1716,
            "byteOffset" : 81284
        }
    ],
    "buffers" : [
        {
            "byteLength" : 83000,
            "uri" : "data:application/octet-stream;base64,"
        }
    ]
}
