{
    "asset" : {
        "generator" : "Khronos glTF Blender I/O v1.8.19",
        "version" : "2.0"
    },
    "scene" : 0,
    "scenes" : [
        {
            "name" : "Scene",
            "nodes" : [
                0
            ]
        }
    ],
    "nodes" : [
        {
            "mesh" : 0,
            "name" : "Labyrinth",
            "scale" : [
                15.348526954650879,
                10.499977111816406,
                11
            ],
            "translation" : [
                -15.595367431640625,
                10,
                -64.6925277709961
            ]
        }
    ],
    "materials" : [
        {
            "alphaMode" : "BLEND",
            "doubleSided" : true,
            "name" : "Base",
            "pbrMetallicRoughness" : {
                "metallicFactor" : 0,
                "roughnessFactor" : 0.4000000059604645
            }
        },
        {
            "doubleSided" : true,
            "name" : "Black",
            "pbrMetallicRoughness" : {
                "baseColorFactor" : [
                    0.009018592536449432,
                    0.009018592536449432,
                    0.009018592536449432,
                    1
                ],
                "metallicFactor" : 0,
                "roughnessFactor" : 0.5
            }
        },
        {
            "doubleSided" : true,
            "name" : "Glass.002",
            "pbrMetallicRoughness" : {}
        },
        {
            "doubleSided" : true,
            "name" : "Transluscent",
            "pbrMetallicRoughness" : {}
        },
        {
            "doubleSided" : true,
            "name" : "White",
            "pbrMetallicRoughness" : {
                "baseColorFactor" : [
                    0.800000011920929,
                    0.800000011920929,
                    0.800000011920929,
                    1
                ],
                "metallicFactor" : 0,
                "roughnessFactor" : 0.5
            }
        },
        {
            "doubleSided" : true,
            "name" : "Orange",
            "pbrMetallicRoughness" : {
                "baseColorFactor" : [
                    0.8000000715255737,
                    0.19034512341022491,
                    0.017154499888420105,
                    1
                ],
                "metallicFactor" : 0,
                "roughnessFactor" : 0.5
            }
        },
        {
            "doubleSided" : true,
            "name" : "Blue",
            "pbrMetallicRoughness" : {
                "baseColorFactor" : [
                    0.38188406825065613,
                    0.5587427020072937,
                    0.8000000715255737,
                    1
                ],
                "metallicFactor" : 0,
                "roughnessFactor" : 0.5
            }
        }
    ],
    "meshes" : [
        {
            "name" : "Cube.004",
            "primitives" : [
                {
                    "attributes" : {
                        "POSITION" : 0,
                        "NORMAL" : 1,
                        "TEXCOORD_0" : 2
                    },
                    "indices" : 3,
                    "material" : 0
                },
                {
                    "attributes" : {
                        "POSITION" : 4,
                        "NORMAL" : 5,
                        "TEXCOORD_0" : 6
                    },
                    "indices" : 7,
                    "material" : 1
                },
                {
                    "attributes" : {
                        "POSITION" : 8,
                        "NORMAL" : 9,
                        "TEXCOORD_0" : 10
                    },
                    "indices" : 11,
                    "material" : 2
                },
                {
                    "attributes" : {
                        "POSITION" : 12,
                        "NORMAL" : 13,
                        "TEXCOORD_0" : 14
                    },
                    "indices" : 15,
                    "material" : 3
                },
                {
                    "attributes" : {
                        "POSITION" : 16,
                        "NORMAL" : 17,
                        "TEXCOORD_0" : 18
                    },
                    "indices" : 19,
                    "material" : 4
                },
                {
                    "attributes" : {
                        "POSITION" : 20,
                        "NORMAL" : 21,
                        "TEXCOORD_0" : 22
                    },
                    "indices" : 23,
                    "material" : 5
                },
                {
                    "attributes" : {
                        "POSITION" : 24,
                        "NORMAL" : 25,
                        "TEXCOORD_0" : 26
                    },
                    "indices" : 27,
                    "material" : 6
                }
            ]
        }
    ],
    "accessors" : [
        {
            "bufferView" : 0,
            "componentType" : 5126,
            "count" : 12044,
            "max" : [
                1.0897493362426758,
                1,
                0.6821544170379639
            ],
            "min" : [
                -1,
                -1.0027469396591187,
                -2.6388001441955566
            ],
            "type" : "VEC3"
        },
        {
            "bufferView" : 1,
            "componentType" : 5126,
            "count" : 12044,
            "type" : "VEC3"
        },
        {
            "bufferView" : 2,
            "componentType" : 5126,
            "count" : 12044,
            "type" : "VEC2"
        },
        {
            "bufferView" : 3,
            "componentType" : 5123,
            "count" : 16491,
            "type" : "SCALAR"
        },
        {
            "bufferView" : 4,
            "componentType" : 5126,
            "count" : 2264,
            "max" : [
                1.1109519004821777,
                0.6105964779853821,
                0.6661530137062073
            ],
            "min" : [
                0.09500330686569214,
                -1.0027469396591187,
                -2.5339550971984863
            ],
            "type" : "VEC3"
        },
        {
            "bufferView" : 5,
            "componentType" : 5126,
            "count" : 2264,
            "type" : "VEC3"
        },
        {
            "bufferView" : 6,
            "componentType" : 5126,
            "count" : 2264,
            "type" : "VEC2"
        },
        {
            "bufferView" : 7,
            "componentType" : 5123,
            "count" : 2766,
            "type" : "SCALAR"
        },
        {
            "bufferView" : 8,
            "componentType" : 5126,
            "count" : 42,
            "max" : [
                1.0047451257705688,
                -0.1551234871149063,
                0.5640300512313843
            ],
            "min" : [
                0.09500330686569214,
                -1.0027469396591187,
                -2.5339550971984863
            ],
            "type" : "VEC3"
        },
        {
            "bufferView" : 9,
            "componentType" : 5126,
            "count" : 42,
            "type" : "VEC3"
        },
        {
            "bufferView" : 10,
            "componentType" : 5126,
            "count" : 42,
            "type" : "VEC2"
        },
        {
            "bufferView" : 11,
            "componentType" : 5123,
            "count" : 60,
            "type" : "SCALAR"
        },
        {
            "bufferView" : 12,
            "componentType" : 5126,
            "count" : 10,
            "max" : [
                0.48827385902404785,
                -0.1551234871149063,
                0.08605463057756424
            ],
            "min" : [
                0.09500330686569214,
                -1.0027469396591187,
                -1.7762329578399658
            ],
            "type" : "VEC3"
        },
        {
            "bufferView" : 13,
            "componentType" : 5126,
            "count" : 10,
            "type" : "VEC3"
        },
        {
            "bufferView" : 14,
            "componentType" : 5126,
            "count" : 10,
            "type" : "VEC2"
        },
        {
            "bufferView" : 15,
            "componentType" : 5123,
            "count" : 18,
            "type" : "SCALAR"
        },
        {
            "bufferView" : 16,
            "componentType" : 5126,
            "count" : 2357,
            "max" : [
                1.0897493362426758,
                1,
                0.6821544170379639
            ],
            "min" : [
                -1,
                0.47405487298965454,
                -2.6388001441955566
            ],
            "type" : "VEC3"
        },
        {
            "bufferView" : 17,
            "componentType" : 5126,
            "count" : 2357,
            "type" : "VEC3"
        },
        {
            "bufferView" : 18,
            "componentType" : 5126,
            "count" : 2357,
            "type" : "VEC2"
        },
        {
            "bufferView" : 19,
            "componentType" : 5123,
            "count" : 3039,
            "type" : "SCALAR"
        },
        {
            "bufferView" : 20,
            "componentType" : 5126,
            "count" : 895,
            "max" : [
                1.0864856243133545,
                0.6743003726005554,
                0.5640300512313843
            ],
            "min" : [
                -1,
                -1.0027469396591187,
                -2.5339550971984863
            ],
            "type" : "VEC3"
        },
        {
            "bufferView" : 21,
            "componentType" : 5126,
            "count" : 895,
            "type" : "VEC3"
        },
        {
            "bufferView" : 22,
            "componentType" : 5126,
            "count" : 895,
            "type" : "VEC2"
        },
        {
            "bufferView" : 23,
            "componentType" : 5123,
            "count" : 1650,
            "type" : "SCALAR"
        },
        {
            "bufferView" : 24,
            "componentType" : 5126,
            "count" : 85,
            "max" : [
                1.1109519004821777,
                -0.0027469913475215435,
                -0.7117969989776611
            ],
            "min" : [
                0.6326680183410645,
                -0.1551234871149063,
                -2.5339550971984863
            ],
            "type" : "VEC3"
        },
        {
            "bufferView" : 25,
            "componentType" : 5126,
            "count" : 85,
            "type" : "VEC3"
        },
        {
            "bufferView" : 26,
            "componentType" : 5126,
            "count" : 85,
            "type" : "VEC2"
        },
        {
            "bufferView" : 27,
            "componentType" : 5123,
            "count" : 156,
            "type" : "SCALAR"
        }
    ],
    "bufferViews" : [
        {
            "buffer" : 0,
            "byteLength" : 144528,
            "byteOffset" : 0
        },
        {
            "buffer" : 0,
            "byteLength" : 144528,
            "byteOffset" : 144528
        },
        {
            "buffer" : 0,
            "byteLength" : 96352,
            "byteOffset" : 289056
        },
        {
            "buffer" : 0,
            "byteLength" : 32982,
            "byteOffset" : 385408
        },
        {
            "buffer" : 0,
            "byteLength" : 27168,
            "byteOffset" : 418392
        },
        {
            "buffer" : 0,
            "byteLength" : 27168,
            "byteOffset" : 445560
        },
        {
            "buffer" : 0,
            "byteLength" : 18112,
            "byteOffset" : 472728
        },
        {
            "buffer" : 0,
            "byteLength" : 5532,
            "byteOffset" : 490840
        },
        {
            "buffer" : 0,
            "byteLength" : 504,
            "byteOffset" : 496372
        },
        {
            "buffer" : 0,
            "byteLength" : 504,
            "byteOffset" : 496876
        },
        {
            "buffer" : 0,
            "byteLength" : 336,
            "byteOffset" : 497380
        },
        {
            "buffer" : 0,
            "byteLength" : 120,
            "byteOffset" : 497716
        },
        {
            "buffer" : 0,
            "byteLength" : 120,
            "byteOffset" : 497836
        },
        {
            "buffer" : 0,
            "byteLength" : 120,
            "byteOffset" : 497956
        },
        {
            "buffer" : 0,
            "byteLength" : 80,
            "byteOffset" : 498076
        },
        {
            "buffer" : 0,
            "byteLength" : 36,
            "byteOffset" : 498156
        },
        {
            "buffer" : 0,
            "byteLength" : 28284,
            "byteOffset" : 498192
        },
        {
            "buffer" : 0,
            "byteLength" : 28284,
            "byteOffset" : 526476
        },
        {
            "buffer" : 0,
            "byteLength" : 18856,
            "byteOffset" : 554760
        },
        {
            "buffer" : 0,
            "byteLength" : 6078,
            "byteOffset" : 573616
        },
        {
            "buffer" : 0,
            "byteLength" : 10740,
            "byteOffset" : 579696
        },
        {
            "buffer" : 0,
            "byteLength" : 10740,
            "byteOffset" : 590436
        },
        {
            "buffer" : 0,
            "byteLength" : 7160,
            "byteOffset" : 601176
        },
        {
            "buffer" : 0,
            "byteLength" : 3300,
            "byteOffset" : 608336
        },
        {
            "buffer" : 0,
            "byteLength" : 1020,
            "byteOffset" : 611636
        },
        {
            "buffer" : 0,
            "byteLength" : 1020,
            "byteOffset" : 612656
        },
        {
            "buffer" : 0,
            "byteLength" : 680,
            "byteOffset" : 613676
        },
        {
            "buffer" : 0,
            "byteLength" : 312,
            "byteOffset" : 614356
        }
    ],
    "buffers" : [
        {
            "byteLength" : 614668,
            "uri" : "data:application/octet-stream;base64,"
        }
    ]
}
