{
    "asset" : {
        "generator" : "Khronos glTF Blender I/O v1.8.19",
        "version" : "2.0"
    },
    "scene" : 0,
    "scenes" : [
        {
            "name" : "Scene",
            "nodes" : [
                0
            ]
        }
    ],
    "nodes" : [
        {
            "mesh" : 0,
            "name" : "Cube",
            "scale" : [
                2.9418444633483887,
                14.70922565460205,
                27.95737075805664
            ],
            "translation" : [
                -2,
                14,
                -80.93407440185547
            ]
        }
    ],
    "materials" : [
        {
            "doubleSided" : true,
            "name" : "Base",
            "pbrMetallicRoughness" : {
                "baseColorTexture" : {
                    "index" : 0
                },
                "metallicFactor" : 0,
                "roughnessFactor" : 0.4000000059604645
            }
        },
        {
            "doubleSided" : true,
            "name" : "Black",
            "pbrMetallicRoughness" : {
                "baseColorFactor" : [
                    0.009018592536449432,
                    0.009018592536449432,
                    0.009018592536449432,
                    1
                ],
                "metallicFactor" : 0,
                "roughnessFactor" : 0.5
            }
        },
        {
            "doubleSided" : true,
            "name" : "Glass",
            "pbrMetallicRoughness" : {}
        },
        {
            "doubleSided" : true,
            "name" : "Transluscent",
            "pbrMetallicRoughness" : {}
        },
        {
            "doubleSided" : true,
            "name" : "White",
            "pbrMetallicRoughness" : {
                "baseColorFactor" : [
                    0.800000011920929,
                    0.800000011920929,
                    0.800000011920929,
                    1
                ],
                "metallicFactor" : 0,
                "roughnessFactor" : 0.5
            }
        },
        {
            "doubleSided" : true,
            "name" : "Orange",
            "pbrMetallicRoughness" : {
                "baseColorFactor" : [
                    0.8000000715255737,
                    0.19034512341022491,
                    0.017154499888420105,
                    1
                ],
                "metallicFactor" : 0,
                "roughnessFactor" : 0.5
            }
        },
        {
            "doubleSided" : true,
            "name" : "Blue",
            "pbrMetallicRoughness" : {
                "baseColorFactor" : [
                    0.38188406825065613,
                    0.5587427020072937,
                    0.8000000715255737,
                    1
                ],
                "metallicFactor" : 0,
                "roughnessFactor" : 0.5
            }
        }
    ],
    "meshes" : [
        {
            "name" : "Cube",
            "primitives" : [
                {
                    "attributes" : {
                        "POSITION" : 0,
                        "NORMAL" : 1,
                        "TEXCOORD_0" : 2
                    },
                    "indices" : 3,
                    "material" : 0
                },
                {
                    "attributes" : {
                        "POSITION" : 4,
                        "NORMAL" : 5,
                        "TEXCOORD_0" : 6
                    },
                    "indices" : 7,
                    "material" : 1
                },
                {
                    "attributes" : {
                        "POSITION" : 8,
                        "NORMAL" : 9,
                        "TEXCOORD_0" : 10
                    },
                    "indices" : 11,
                    "material" : 2
                },
                {
                    "attributes" : {
                        "POSITION" : 12,
                        "NORMAL" : 13,
                        "TEXCOORD_0" : 14
                    },
                    "indices" : 15,
                    "material" : 3
                },
                {
                    "attributes" : {
                        "POSITION" : 16,
                        "NORMAL" : 17,
                        "TEXCOORD_0" : 18
                    },
                    "indices" : 19,
                    "material" : 4
                },
                {
                    "attributes" : {
                        "POSITION" : 20,
                        "NORMAL" : 21,
                        "TEXCOORD_0" : 22
                    },
                    "indices" : 23,
                    "material" : 5
                },
                {
                    "attributes" : {
                        "POSITION" : 24,
                        "NORMAL" : 25,
                        "TEXCOORD_0" : 26
                    },
                    "indices" : 27,
                    "material" : 6
                }
            ]
        }
    ],
    "textures" : [
        {
            "sampler" : 0,
            "source" : 0
        }
    ],
    "images" : [
        {
            "bufferView" : 4,
            "mimeType" : "image/png",
            "name" : "labyrinth"
        }
    ],
    "accessors" : [
        {
            "bufferView" : 0,
            "componentType" : 5126,
            "count" : 8694,
            "max" : [
                1.0897493362426758,
                1,
                0.6821544170379639
            ],
            "min" : [
                -1,
                -1.0027469396591187,
                -2.6388001441955566
            ],
            "type" : "VEC3"
        },
        {
            "bufferView" : 1,
            "componentType" : 5126,
            "count" : 8694,
            "type" : "VEC3"
        },
        {
            "bufferView" : 2,
            "componentType" : 5126,
            "count" : 8694,
            "type" : "VEC2"
        },
        {
            "bufferView" : 3,
            "componentType" : 5123,
            "count" : 16491,
            "type" : "SCALAR"
        },
        {
            "bufferView" : 5,
            "componentType" : 5126,
            "count" : 1247,
            "max" : [
                1.1109519004821777,
                0.6105964779853821,
                0.6661530137062073
            ],
            "min" : [
                0.09500330686569214,
                -1.0027469396591187,
                -2.5339550971984863
            ],
            "type" : "VEC3"
        },
        {
            "bufferView" : 6,
            "componentType" : 5126,
            "count" : 1247,
            "type" : "VEC3"
        },
        {
            "bufferView" : 7,
            "componentType" : 5126,
            "count" : 1247,
            "type" : "VEC2"
        },
        {
            "bufferView" : 8,
            "componentType" : 5123,
            "count" : 2766,
            "type" : "SCALAR"
        },
        {
            "bufferView" : 9,
            "componentType" : 5126,
            "count" : 40,
            "max" : [
                1.0047451257705688,
                -0.1551234871149063,
                0.5640300512313843
            ],
            "min" : [
                0.09500330686569214,
                -1.0027469396591187,
                -2.5339550971984863
            ],
            "type" : "VEC3"
        },
        {
            "bufferView" : 10,
            "componentType" : 5126,
            "count" : 40,
            "type" : "VEC3"
        },
        {
            "bufferView" : 11,
            "componentType" : 5126,
            "count" : 40,
            "type" : "VEC2"
        },
        {
            "bufferView" : 12,
            "componentType" : 5123,
            "count" : 60,
            "type" : "SCALAR"
        },
        {
            "bufferView" : 13,
            "componentType" : 5126,
            "count" : 10,
            "max" : [
                0.48827385902404785,
                -0.1551234871149063,
                0.08605463057756424
            ],
            "min" : [
                0.09500330686569214,
                -1.0027469396591187,
                -1.7762329578399658
            ],
            "type" : "VEC3"
        },
        {
            "bufferView" : 14,
            "componentType" : 5126,
            "count" : 10,
            "type" : "VEC3"
        },
        {
            "bufferView" : 15,
            "componentType" : 5126,
            "count" : 10,
            "type" : "VEC2"
        },
        {
            "bufferView" : 16,
            "componentType" : 5123,
            "count" : 18,
            "type" : "SCALAR"
        },
        {
            "bufferView" : 17,
            "componentType" : 5126,
            "count" : 1477,
            "max" : [
                1.0897493362426758,
                1,
                0.6821544170379639
            ],
            "min" : [
                -1,
                0.47405487298965454,
                -2.6388001441955566
            ],
            "type" : "VEC3"
        },
        {
            "bufferView" : 18,
            "componentType" : 5126,
            "count" : 1477,
            "type" : "VEC3"
        },
        {
            "bufferView" : 19,
            "componentType" : 5126,
            "count" : 1477,
            "type" : "VEC2"
        },
        {
            "bufferView" : 20,
            "componentType" : 5123,
            "count" : 3039,
            "type" : "SCALAR"
        },
        {
            "bufferView" : 21,
            "componentType" : 5126,
            "count" : 757,
            "max" : [
                1.0864856243133545,
                0.6743003726005554,
                0.5640300512313843
            ],
            "min" : [
                -1,
                -1.0027469396591187,
                -2.5339550971984863
            ],
            "type" : "VEC3"
        },
        {
            "bufferView" : 22,
            "componentType" : 5126,
            "count" : 757,
            "type" : "VEC3"
        },
        {
            "bufferView" : 23,
            "componentType" : 5126,
            "count" : 757,
            "type" : "VEC2"
        },
        {
            "bufferView" : 24,
            "componentType" : 5123,
            "count" : 1650,
            "type" : "SCALAR"
        },
        {
            "bufferView" : 25,
            "componentType" : 5126,
            "count" : 73,
            "max" : [
                1.1109519004821777,
                -0.0027469913475215435,
                -0.7117969989776611
            ],
            "min" : [
                0.6326680183410645,
                -0.1551234871149063,
                -2.5339550971984863
            ],
            "type" : "VEC3"
        },
        {
            "bufferView" : 26,
            "componentType" : 5126,
            "count" : 73,
            "type" : "VEC3"
        },
        {
            "bufferView" : 27,
            "componentType" : 5126,
            "count" : 73,
            "type" : "VEC2"
        },
        {
            "bufferView" : 28,
            "componentType" : 5123,
            "count" : 156,
            "type" : "SCALAR"
        }
    ],
    "bufferViews" : [
        {
            "buffer" : 0,
            "byteLength" : 104328,
            "byteOffset" : 0
        },
        {
            "buffer" : 0,
            "byteLength" : 104328,
            "byteOffset" : 104328
        },
        {
            "buffer" : 0,
            "byteLength" : 69552,
            "byteOffset" : 208656
        },
        {
            "buffer" : 0,
            "byteLength" : 32982,
            "byteOffset" : 278208
        },
        {
            "buffer" : 0,
            "byteLength" : 2615129,
            "byteOffset" : 311192
        },
        {
            "buffer" : 0,
            "byteLength" : 14964,
            "byteOffset" : 2926324
        },
        {
            "buffer" : 0,
            "byteLength" : 14964,
            "byteOffset" : 2941288
        },
        {
            "buffer" : 0,
            "byteLength" : 9976,
            "byteOffset" : 2956252
        },
        {
            "buffer" : 0,
            "byteLength" : 5532,
            "byteOffset" : 2966228
        },
        {
            "buffer" : 0,
            "byteLength" : 480,
            "byteOffset" : 2971760
        },
        {
            "buffer" : 0,
            "byteLength" : 480,
            "byteOffset" : 2972240
        },
        {
            "buffer" : 0,
            "byteLength" : 320,
            "byteOffset" : 2972720
        },
        {
            "buffer" : 0,
            "byteLength" : 120,
            "byteOffset" : 2973040
        },
        {
            "buffer" : 0,
            "byteLength" : 120,
            "byteOffset" : 2973160
        },
        {
            "buffer" : 0,
            "byteLength" : 120,
            "byteOffset" : 2973280
        },
        {
            "buffer" : 0,
            "byteLength" : 80,
            "byteOffset" : 2973400
        },
        {
            "buffer" : 0,
            "byteLength" : 36,
            "byteOffset" : 2973480
        },
        {
            "buffer" : 0,
            "byteLength" : 17724,
            "byteOffset" : 2973516
        },
        {
            "buffer" : 0,
            "byteLength" : 17724,
            "byteOffset" : 2991240
        },
        {
            "buffer" : 0,
            "byteLength" : 11816,
            "byteOffset" : 3008964
        },
        {
            "buffer" : 0,
            "byteLength" : 6078,
            "byteOffset" : 3020780
        },
        {
            "buffer" : 0,
            "byteLength" : 9084,
            "byteOffset" : 3026860
        },
        {
            "buffer" : 0,
            "byteLength" : 9084,
            "byteOffset" : 3035944
        },
        {
            "buffer" : 0,
            "byteLength" : 6056,
            "byteOffset" : 3045028
        },
        {
            "buffer" : 0,
            "byteLength" : 3300,
            "byteOffset" : 3051084
        },
        {
            "buffer" : 0,
            "byteLength" : 876,
            "byteOffset" : 3054384
        },
        {
            "buffer" : 0,
            "byteLength" : 876,
            "byteOffset" : 3055260
        },
        {
            "buffer" : 0,
            "byteLength" : 584,
            "byteOffset" : 3056136
        },
        {
            "buffer" : 0,
            "byteLength" : 312,
            "byteOffset" : 3056720
        }
    ],
    "samplers" : [
        {
            "magFilter" : 9729,
            "minFilter" : 9987
        }
    ],
    "buffers" : [
        {
            "byteLength" : 3057032,
            "uri" : "data:application/octet-stream;base64,"
        }
    ]
}
