{
    "asset" : {
        "generator" : "Khronos glTF Blender I/O v1.8.19",
        "version" : "2.0"
    },
    "scene" : 0,
    "scenes" : [
        {
            "name" : "Scene",
            "nodes" : [
                0
            ]
        }
    ],
    "nodes" : [
        {
            "mesh" : 0,
            "name" : "Cube.001",
            "rotation" : [
                0,
                0.9999953508377075,
                0,
                -0.0030522255692631006
            ],
            "scale" : [
                4.313362121582031,
                14.167217254638672,
                15.64112377166748
            ],
            "translation" : [
                -37.734901428222656,
                13.571115493774414,
                50.02801513671875
            ]
        }
    ],
    "materials" : [
        {
            "doubleSided" : true,
            "name" : "Material.032",
            "pbrMetallicRoughness" : {
                "baseColorFactor" : [
                    0.800000011920929,
                    0.800000011920929,
                    0.800000011920929,
                    1
                ],
                "metallicFactor" : 0,
                "roughnessFactor" : 0.4000000059604645
            }
        },
        {
            "doubleSided" : true,
            "name" : "Material.033",
            "pbrMetallicRoughness" : {}
        },
        {
            "doubleSided" : true,
            "name" : "Material.034",
            "pbrMetallicRoughness" : {
                "baseColorFactor" : [
                    0.8000000715255737,
                    0.025876419618725777,
                    0.0291008148342371,
                    1
                ],
                "metallicFactor" : 0,
                "roughnessFactor" : 0.5
            }
        },
        {
            "doubleSided" : true,
            "name" : "Material.035",
            "pbrMetallicRoughness" : {}
        },
        {
            "doubleSided" : true,
            "name" : "Material.036",
            "pbrMetallicRoughness" : {
                "metallicFactor" : 0,
                "roughnessFactor" : 0.5
            }
        },
        {
            "doubleSided" : true,
            "name" : "Material.037",
            "pbrMetallicRoughness" : {}
        },
        {
            "doubleSided" : true,
            "name" : "Material.038",
            "pbrMetallicRoughness" : {
                "baseColorFactor" : [
                    0.19470231235027313,
                    0.3760693073272705,
                    0.8000000715255737,
                    1
                ],
                "metallicFactor" : 0,
                "roughnessFactor" : 0.5
            }
        },
        {
            "doubleSided" : true,
            "name" : "top.001",
            "pbrMetallicRoughness" : {
                "baseColorTexture" : {
                    "index" : 0
                },
                "metallicFactor" : 0,
                "roughnessFactor" : 0.5
            }
        },
        {
            "doubleSided" : true,
            "name" : "bottom",
            "pbrMetallicRoughness" : {
                "baseColorTexture" : {
                    "index" : 1
                },
                "metallicFactor" : 0,
                "roughnessFactor" : 0.5
            }
        },
        {
            "doubleSided" : true,
            "name" : "brick",
            "pbrMetallicRoughness" : {
                "baseColorTexture" : {
                    "index" : 2
                },
                "metallicFactor" : 0,
                "roughnessFactor" : 0.5
            }
        }
    ],
    "meshes" : [
        {
            "name" : "Cube.007",
            "primitives" : [
                {
                    "attributes" : {
                        "POSITION" : 0,
                        "NORMAL" : 1,
                        "TEXCOORD_0" : 2
                    },
                    "indices" : 3,
                    "material" : 0
                },
                {
                    "attributes" : {
                        "POSITION" : 4,
                        "NORMAL" : 5,
                        "TEXCOORD_0" : 6
                    },
                    "indices" : 7,
                    "material" : 1
                },
                {
                    "attributes" : {
                        "POSITION" : 8,
                        "NORMAL" : 9,
                        "TEXCOORD_0" : 10
                    },
                    "indices" : 11,
                    "material" : 2
                },
                {
                    "attributes" : {
                        "POSITION" : 12,
                        "NORMAL" : 13,
                        "TEXCOORD_0" : 14
                    },
                    "indices" : 15,
                    "material" : 3
                },
                {
                    "attributes" : {
                        "POSITION" : 16,
                        "NORMAL" : 17,
                        "TEXCOORD_0" : 18
                    },
                    "indices" : 19,
                    "material" : 4
                },
                {
                    "attributes" : {
                        "POSITION" : 20,
                        "NORMAL" : 21,
                        "TEXCOORD_0" : 22
                    },
                    "indices" : 23,
                    "material" : 5
                },
                {
                    "attributes" : {
                        "POSITION" : 24,
                        "NORMAL" : 25,
                        "TEXCOORD_0" : 26
                    },
                    "indices" : 27,
                    "material" : 6
                },
                {
                    "attributes" : {
                        "POSITION" : 28,
                        "NORMAL" : 29,
                        "TEXCOORD_0" : 30
                    },
                    "indices" : 31,
                    "material" : 7
                },
                {
                    "attributes" : {
                        "POSITION" : 32,
                        "NORMAL" : 33,
                        "TEXCOORD_0" : 34
                    },
                    "indices" : 35,
                    "material" : 8
                },
                {
                    "attributes" : {
                        "POSITION" : 36,
                        "NORMAL" : 37,
                        "TEXCOORD_0" : 38
                    },
                    "indices" : 39,
                    "material" : 9
                }
            ]
        }
    ],
    "textures" : [
        {
            "sampler" : 0,
            "source" : 0
        },
        {
            "sampler" : 0,
            "source" : 1
        },
        {
            "sampler" : 0,
            "source" : 2
        }
    ],
    "images" : [
        {
            "bufferView" : 32,
            "mimeType" : "image/png",
            "name" : "Image_0"
        },
        {
            "bufferView" : 37,
            "mimeType" : "image/png",
            "name" : "Image_1"
        },
        {
            "bufferView" : 42,
            "mimeType" : "image/png",
            "name" : "Image_2"
        }
    ],
    "accessors" : [
        {
            "bufferView" : 0,
            "componentType" : 5126,
            "count" : 4669,
            "max" : [
                1,
                1.9136269092559814,
                3.682023763656616
            ],
            "min" : [
                -2.406606912612915,
                -1,
                -1
            ],
            "type" : "VEC3"
        },
        {
            "bufferView" : 1,
            "componentType" : 5126,
            "count" : 4669,
            "type" : "VEC3"
        },
        {
            "bufferView" : 2,
            "componentType" : 5126,
            "count" : 4669,
            "type" : "VEC2"
        },
        {
            "bufferView" : 3,
            "componentType" : 5123,
            "count" : 8484,
            "type" : "SCALAR"
        },
        {
            "bufferView" : 4,
            "componentType" : 5126,
            "count" : 446,
            "max" : [
                -0.5942723751068115,
                1.6994436979293823,
                3.461460828781128
            ],
            "min" : [
                -1,
                0.28001031279563904,
                -0.8629512786865234
            ],
            "type" : "VEC3"
        },
        {
            "bufferView" : 5,
            "componentType" : 5126,
            "count" : 446,
            "type" : "VEC3"
        },
        {
            "bufferView" : 6,
            "componentType" : 5126,
            "count" : 446,
            "type" : "VEC2"
        },
        {
            "bufferView" : 7,
            "componentType" : 5123,
            "count" : 900,
            "type" : "SCALAR"
        },
        {
            "bufferView" : 8,
            "componentType" : 5126,
            "count" : 58,
            "max" : [
                0.5552774667739868,
                -0.293291300535202,
                2.0468599796295166
            ],
            "min" : [
                -1.4361644983291626,
                -0.9068898558616638,
                -0.9129512906074524
            ],
            "type" : "VEC3"
        },
        {
            "bufferView" : 9,
            "componentType" : 5126,
            "count" : 58,
            "type" : "VEC3"
        },
        {
            "bufferView" : 10,
            "componentType" : 5126,
            "count" : 58,
            "type" : "VEC2"
        },
        {
            "bufferView" : 11,
            "componentType" : 5123,
            "count" : 96,
            "type" : "SCALAR"
        },
        {
            "bufferView" : 12,
            "componentType" : 5126,
            "count" : 55,
            "max" : [
                -1,
                -0.36695581674575806,
                3.511460781097412
            ],
            "min" : [
                -1,
                -0.9068898558616638,
                -0.9129512906074524
            ],
            "type" : "VEC3"
        },
        {
            "bufferView" : 13,
            "componentType" : 5126,
            "count" : 55,
            "type" : "VEC3"
        },
        {
            "bufferView" : 14,
            "componentType" : 5126,
            "count" : 55,
            "type" : "VEC2"
        },
        {
            "bufferView" : 15,
            "componentType" : 5123,
            "count" : 114,
            "type" : "SCALAR"
        },
        {
            "bufferView" : 16,
            "componentType" : 5126,
            "count" : 195,
            "max" : [
                -0.8499858975410461,
                0.9187737703323364,
                2.9153854846954346
            ],
            "min" : [
                -1.4346308708190918,
                0.7232272624969482,
                -0.9896404147148132
            ],
            "type" : "VEC3"
        },
        {
            "bufferView" : 17,
            "componentType" : 5126,
            "count" : 195,
            "type" : "VEC3"
        },
        {
            "bufferView" : 18,
            "componentType" : 5126,
            "count" : 195,
            "type" : "VEC2"
        },
        {
            "bufferView" : 19,
            "componentType" : 5123,
            "count" : 366,
            "type" : "SCALAR"
        },
        {
            "bufferView" : 20,
            "componentType" : 5126,
            "count" : 27,
            "max" : [
                -1,
                -0.36695581674575806,
                1.7589613199234009
            ],
            "min" : [
                -1,
                -0.9068898558616638,
                0.9227315783500671
            ],
            "type" : "VEC3"
        },
        {
            "bufferView" : 21,
            "componentType" : 5126,
            "count" : 27,
            "type" : "VEC3"
        },
        {
            "bufferView" : 22,
            "componentType" : 5126,
            "count" : 27,
            "type" : "VEC2"
        },
        {
            "bufferView" : 23,
            "componentType" : 5123,
            "count" : 48,
            "type" : "SCALAR"
        },
        {
            "bufferView" : 24,
            "componentType" : 5126,
            "count" : 10,
            "max" : [
                -0.1337207555770874,
                -0.36695581674575806,
                1.477590799331665
            ],
            "min" : [
                -0.1337207555770874,
                -0.9068898558616638,
                1.2595046758651733
            ],
            "type" : "VEC3"
        },
        {
            "bufferView" : 25,
            "componentType" : 5126,
            "count" : 10,
            "type" : "VEC3"
        },
        {
            "bufferView" : 26,
            "componentType" : 5126,
            "count" : 10,
            "type" : "VEC2"
        },
        {
            "bufferView" : 27,
            "componentType" : 5123,
            "count" : 12,
            "type" : "SCALAR"
        },
        {
            "bufferView" : 28,
            "componentType" : 5126,
            "count" : 1771,
            "max" : [
                1,
                1.9089834690093994,
                3.682023763656616
            ],
            "min" : [
                -1.4986870288848877,
                0.25001031160354614,
                -0.9581325054168701
            ],
            "type" : "VEC3"
        },
        {
            "bufferView" : 29,
            "componentType" : 5126,
            "count" : 1771,
            "type" : "VEC3"
        },
        {
            "bufferView" : 30,
            "componentType" : 5126,
            "count" : 1771,
            "type" : "VEC2"
        },
        {
            "bufferView" : 31,
            "componentType" : 5123,
            "count" : 4566,
            "type" : "SCALAR"
        },
        {
            "bufferView" : 33,
            "componentType" : 5126,
            "count" : 2028,
            "max" : [
                1,
                1.8665111064910889,
                3.682023763656616
            ],
            "min" : [
                -1.9686012268066406,
                -1,
                -0.9581324458122253
            ],
            "type" : "VEC3"
        },
        {
            "bufferView" : 34,
            "componentType" : 5126,
            "count" : 2028,
            "type" : "VEC3"
        },
        {
            "bufferView" : 35,
            "componentType" : 5126,
            "count" : 2028,
            "type" : "VEC2"
        },
        {
            "bufferView" : 36,
            "componentType" : 5123,
            "count" : 4698,
            "type" : "SCALAR"
        },
        {
            "bufferView" : 38,
            "componentType" : 5126,
            "count" : 360,
            "max" : [
                1,
                -0.906889796257019,
                3.682023763656616
            ],
            "min" : [
                -1.9920250177383423,
                -1,
                -0.9581324458122253
            ],
            "type" : "VEC3"
        },
        {
            "bufferView" : 39,
            "componentType" : 5126,
            "count" : 360,
            "type" : "VEC3"
        },
        {
            "bufferView" : 40,
            "componentType" : 5126,
            "count" : 360,
            "type" : "VEC2"
        },
        {
            "bufferView" : 41,
            "componentType" : 5123,
            "count" : 636,
            "type" : "SCALAR"
        }
    ],
    "bufferViews" : [
        {
            "buffer" : 0,
            "byteLength" : 56028,
            "byteOffset" : 0
        },
        {
            "buffer" : 0,
            "byteLength" : 56028,
            "byteOffset" : 56028
        },
        {
            "buffer" : 0,
            "byteLength" : 37352,
            "byteOffset" : 112056
        },
        {
            "buffer" : 0,
            "byteLength" : 16968,
            "byteOffset" : 149408
        },
        {
            "buffer" : 0,
            "byteLength" : 5352,
            "byteOffset" : 166376
        },
        {
            "buffer" : 0,
            "byteLength" : 5352,
            "byteOffset" : 171728
        },
        {
            "buffer" : 0,
            "byteLength" : 3568,
            "byteOffset" : 177080
        },
        {
            "buffer" : 0,
            "byteLength" : 1800,
            "byteOffset" : 180648
        },
        {
            "buffer" : 0,
            "byteLength" : 696,
            "byteOffset" : 182448
        },
        {
            "buffer" : 0,
            "byteLength" : 696,
            "byteOffset" : 183144
        },
        {
            "buffer" : 0,
            "byteLength" : 464,
            "byteOffset" : 183840
        },
        {
            "buffer" : 0,
            "byteLength" : 192,
            "byteOffset" : 184304
        },
        {
            "buffer" : 0,
            "byteLength" : 660,
            "byteOffset" : 184496
        },
        {
            "buffer" : 0,
            "byteLength" : 660,
            "byteOffset" : 185156
        },
        {
            "buffer" : 0,
            "byteLength" : 440,
            "byteOffset" : 185816
        },
        {
            "buffer" : 0,
            "byteLength" : 228,
            "byteOffset" : 186256
        },
        {
            "buffer" : 0,
            "byteLength" : 2340,
            "byteOffset" : 186484
        },
        {
            "buffer" : 0,
            "byteLength" : 2340,
            "byteOffset" : 188824
        },
        {
            "buffer" : 0,
            "byteLength" : 1560,
            "byteOffset" : 191164
        },
        {
            "buffer" : 0,
            "byteLength" : 732,
            "byteOffset" : 192724
        },
        {
            "buffer" : 0,
            "byteLength" : 324,
            "byteOffset" : 193456
        },
        {
            "buffer" : 0,
            "byteLength" : 324,
            "byteOffset" : 193780
        },
        {
            "buffer" : 0,
            "byteLength" : 216,
            "byteOffset" : 194104
        },
        {
            "buffer" : 0,
            "byteLength" : 96,
            "byteOffset" : 194320
        },
        {
            "buffer" : 0,
            "byteLength" : 120,
            "byteOffset" : 194416
        },
        {
            "buffer" : 0,
            "byteLength" : 120,
            "byteOffset" : 194536
        },
        {
            "buffer" : 0,
            "byteLength" : 80,
            "byteOffset" : 194656
        },
        {
            "buffer" : 0,
            "byteLength" : 24,
            "byteOffset" : 194736
        },
        {
            "buffer" : 0,
            "byteLength" : 21252,
            "byteOffset" : 194760
        },
        {
            "buffer" : 0,
            "byteLength" : 21252,
            "byteOffset" : 216012
        },
        {
            "buffer" : 0,
            "byteLength" : 14168,
            "byteOffset" : 237264
        },
        {
            "buffer" : 0,
            "byteLength" : 9132,
            "byteOffset" : 251432
        },
        {
            "buffer" : 0,
            "byteLength" : 391437,
            "byteOffset" : 260564
        },
        {
            "buffer" : 0,
            "byteLength" : 24336,
            "byteOffset" : 652004
        },
        {
            "buffer" : 0,
            "byteLength" : 24336,
            "byteOffset" : 676340
        },
        {
            "buffer" : 0,
            "byteLength" : 16224,
            "byteOffset" : 700676
        },
        {
            "buffer" : 0,
            "byteLength" : 9396,
            "byteOffset" : 716900
        },
        {
            "buffer" : 0,
            "byteLength" : 164729,
            "byteOffset" : 726296
        },
        {
            "buffer" : 0,
            "byteLength" : 4320,
            "byteOffset" : 891028
        },
        {
            "buffer" : 0,
            "byteLength" : 4320,
            "byteOffset" : 895348
        },
        {
            "buffer" : 0,
            "byteLength" : 2880,
            "byteOffset" : 899668
        },
        {
            "buffer" : 0,
            "byteLength" : 1272,
            "byteOffset" : 902548
        },
        {
            "buffer" : 0,
            "byteLength" : 505766,
            "byteOffset" : 903820
        }
    ],
    "samplers" : [
        {
            "magFilter" : 9729,
            "minFilter" : 9987
        }
    ],
    "buffers" : [
        {
            "byteLength" : 1409588,
            "uri" : "data:application/octet-stream;base64,"
        }
    ]
}
