{
    "asset" : {
        "generator" : "Khronos glTF Blender I/O v1.8.19",
        "version" : "2.0"
    },
    "scene" : 0,
    "scenes" : [
        {
            "name" : "Scene",
            "nodes" : [
                0
            ]
        }
    ],
    "nodes" : [
        {
            "mesh" : 0,
            "name" : "Cube",
            "scale" : [
                1,
                19.308420181274414,
                11.776945114135742
            ],
            "translation" : [
                0,
                23.308420181274414,
                23
            ],
            "rotation": [
              0,
              4.371137499999973e-2,
              0,
              1
            ]
        }
    ],
    "materials" : [
        {
            "doubleSided" : true,
            "name" : "Material",
            "pbrMetallicRoughness" : {
                "baseColorFactor" : [
                    0.800000011920929,
                    0.800000011920929,
                    0.800000011920929,
                    1
                ],
                "metallicFactor" : 0,
                "roughnessFactor" : 0.4000000059604645
            }
        },
        {
            "doubleSided" : true,
            "name" : "Material.001",
            "pbrMetallicRoughness" : {}
        },
        {
            "doubleSided" : true,
            "name" : "Material.002",
            "pbrMetallicRoughness" : {
                "baseColorFactor" : [
                    0.8000000715255737,
                    0.025876419618725777,
                    0.0291008148342371,
                    1
                ],
                "metallicFactor" : 0,
                "roughnessFactor" : 0.5
            }
        },
        {
            "doubleSided" : true,
            "name" : "Material.003",
            "pbrMetallicRoughness" : {}
        },
        {
            "doubleSided" : true,
            "name" : "Material.004",
            "pbrMetallicRoughness" : {
                "metallicFactor" : 0,
                "roughnessFactor" : 0.5
            }
        },
        {
            "doubleSided" : true,
            "name" : "Material.005",
            "pbrMetallicRoughness" : {}
        },
        {
            "doubleSided" : true,
            "name" : "Material.006",
            "pbrMetallicRoughness" : {
                "baseColorFactor" : [
                    0.19470231235027313,
                    0.3760693073272705,
                    0.8000000715255737,
                    1
                ],
                "metallicFactor" : 0,
                "roughnessFactor" : 0.5
            }
        }
    ],
    "meshes" : [
        {
            "name" : "Cube",
            "primitives" : [
                {
                    "attributes" : {
                        "POSITION" : 0,
                        "NORMAL" : 1,
                        "TEXCOORD_0" : 2
                    },
                    "indices" : 3,
                    "material" : 0
                },
                {
                    "attributes" : {
                        "POSITION" : 4,
                        "NORMAL" : 5,
                        "TEXCOORD_0" : 6
                    },
                    "indices" : 7,
                    "material" : 1
                },
                {
                    "attributes" : {
                        "POSITION" : 8,
                        "NORMAL" : 9,
                        "TEXCOORD_0" : 10
                    },
                    "indices" : 11,
                    "material" : 2
                },
                {
                    "attributes" : {
                        "POSITION" : 12,
                        "NORMAL" : 13,
                        "TEXCOORD_0" : 14
                    },
                    "indices" : 15,
                    "material" : 3
                },
                {
                    "attributes" : {
                        "POSITION" : 16,
                        "NORMAL" : 17,
                        "TEXCOORD_0" : 18
                    },
                    "indices" : 19,
                    "material" : 4
                },
                {
                    "attributes" : {
                        "POSITION" : 20,
                        "NORMAL" : 21,
                        "TEXCOORD_0" : 22
                    },
                    "indices" : 23,
                    "material" : 5
                },
                {
                    "attributes" : {
                        "POSITION" : 24,
                        "NORMAL" : 25,
                        "TEXCOORD_0" : 26
                    },
                    "indices" : 27,
                    "material" : 6
                }
            ]
        }
    ],
    "accessors" : [
        {
            "bufferView" : 0,
            "componentType" : 5126,
            "count" : 6341,
            "max" : [
                1,
                1.9136269092559814,
                3.682023763656616
            ],
            "min" : [
                -2.406606912612915,
                -1,
                -1
            ],
            "type" : "VEC3"
        },
        {
            "bufferView" : 1,
            "componentType" : 5126,
            "count" : 6341,
            "type" : "VEC3"
        },
        {
            "bufferView" : 2,
            "componentType" : 5126,
            "count" : 6341,
            "type" : "VEC2"
        },
        {
            "bufferView" : 3,
            "componentType" : 5123,
            "count" : 18180,
            "type" : "SCALAR"
        },
        {
            "bufferView" : 4,
            "componentType" : 5126,
            "count" : 394,
            "max" : [
                -0.5942723751068115,
                1.6994436979293823,
                3.461460828781128
            ],
            "min" : [
                -1,
                0.28001031279563904,
                -0.8629512786865234
            ],
            "type" : "VEC3"
        },
        {
            "bufferView" : 5,
            "componentType" : 5126,
            "count" : 394,
            "type" : "VEC3"
        },
        {
            "bufferView" : 6,
            "componentType" : 5126,
            "count" : 394,
            "type" : "VEC2"
        },
        {
            "bufferView" : 7,
            "componentType" : 5123,
            "count" : 900,
            "type" : "SCALAR"
        },
        {
            "bufferView" : 8,
            "componentType" : 5126,
            "count" : 44,
            "max" : [
                0.5552774667739868,
                -0.293291300535202,
                2.0468599796295166
            ],
            "min" : [
                -1.4361644983291626,
                -0.9068898558616638,
                -0.9129512906074524
            ],
            "type" : "VEC3"
        },
        {
            "bufferView" : 9,
            "componentType" : 5126,
            "count" : 44,
            "type" : "VEC3"
        },
        {
            "bufferView" : 10,
            "componentType" : 5126,
            "count" : 44,
            "type" : "VEC2"
        },
        {
            "bufferView" : 11,
            "componentType" : 5123,
            "count" : 96,
            "type" : "SCALAR"
        },
        {
            "bufferView" : 12,
            "componentType" : 5126,
            "count" : 50,
            "max" : [
                -1,
                -0.36695581674575806,
                3.511460781097412
            ],
            "min" : [
                -1,
                -0.9068898558616638,
                -0.9129512906074524
            ],
            "type" : "VEC3"
        },
        {
            "bufferView" : 13,
            "componentType" : 5126,
            "count" : 50,
            "type" : "VEC3"
        },
        {
            "bufferView" : 14,
            "componentType" : 5126,
            "count" : 50,
            "type" : "VEC2"
        },
        {
            "bufferView" : 15,
            "componentType" : 5123,
            "count" : 114,
            "type" : "SCALAR"
        },
        {
            "bufferView" : 16,
            "componentType" : 5126,
            "count" : 180,
            "max" : [
                -0.8499858975410461,
                0.9187737703323364,
                2.9153854846954346
            ],
            "min" : [
                -1.4346308708190918,
                0.4303867816925049,
                -0.9896404147148132
            ],
            "type" : "VEC3"
        },
        {
            "bufferView" : 17,
            "componentType" : 5126,
            "count" : 180,
            "type" : "VEC3"
        },
        {
            "bufferView" : 18,
            "componentType" : 5126,
            "count" : 180,
            "type" : "VEC2"
        },
        {
            "bufferView" : 19,
            "componentType" : 5123,
            "count" : 378,
            "type" : "SCALAR"
        },
        {
            "bufferView" : 20,
            "componentType" : 5126,
            "count" : 24,
            "max" : [
                -1,
                -0.36695581674575806,
                1.7589613199234009
            ],
            "min" : [
                -1,
                -0.9068898558616638,
                0.9227315783500671
            ],
            "type" : "VEC3"
        },
        {
            "bufferView" : 21,
            "componentType" : 5126,
            "count" : 24,
            "type" : "VEC3"
        },
        {
            "bufferView" : 22,
            "componentType" : 5126,
            "count" : 24,
            "type" : "VEC2"
        },
        {
            "bufferView" : 23,
            "componentType" : 5123,
            "count" : 48,
            "type" : "SCALAR"
        },
        {
            "bufferView" : 24,
            "componentType" : 5126,
            "count" : 8,
            "max" : [
                -0.1337207555770874,
                -0.36695581674575806,
                1.477590799331665
            ],
            "min" : [
                -0.1337207555770874,
                -0.9068898558616638,
                1.2595046758651733
            ],
            "type" : "VEC3"
        },
        {
            "bufferView" : 25,
            "componentType" : 5126,
            "count" : 8,
            "type" : "VEC3"
        },
        {
            "bufferView" : 26,
            "componentType" : 5126,
            "count" : 8,
            "type" : "VEC2"
        },
        {
            "bufferView" : 27,
            "componentType" : 5123,
            "count" : 12,
            "type" : "SCALAR"
        }
    ],
    "bufferViews" : [
        {
            "buffer" : 0,
            "byteLength" : 76092,
            "byteOffset" : 0
        },
        {
            "buffer" : 0,
            "byteLength" : 76092,
            "byteOffset" : 76092
        },
        {
            "buffer" : 0,
            "byteLength" : 50728,
            "byteOffset" : 152184
        },
        {
            "buffer" : 0,
            "byteLength" : 36360,
            "byteOffset" : 202912
        },
        {
            "buffer" : 0,
            "byteLength" : 4728,
            "byteOffset" : 239272
        },
        {
            "buffer" : 0,
            "byteLength" : 4728,
            "byteOffset" : 244000
        },
        {
            "buffer" : 0,
            "byteLength" : 3152,
            "byteOffset" : 248728
        },
        {
            "buffer" : 0,
            "byteLength" : 1800,
            "byteOffset" : 251880
        },
        {
            "buffer" : 0,
            "byteLength" : 528,
            "byteOffset" : 253680
        },
        {
            "buffer" : 0,
            "byteLength" : 528,
            "byteOffset" : 254208
        },
        {
            "buffer" : 0,
            "byteLength" : 352,
            "byteOffset" : 254736
        },
        {
            "buffer" : 0,
            "byteLength" : 192,
            "byteOffset" : 255088
        },
        {
            "buffer" : 0,
            "byteLength" : 600,
            "byteOffset" : 255280
        },
        {
            "buffer" : 0,
            "byteLength" : 600,
            "byteOffset" : 255880
        },
        {
            "buffer" : 0,
            "byteLength" : 400,
            "byteOffset" : 256480
        },
        {
            "buffer" : 0,
            "byteLength" : 228,
            "byteOffset" : 256880
        },
        {
            "buffer" : 0,
            "byteLength" : 2160,
            "byteOffset" : 257108
        },
        {
            "buffer" : 0,
            "byteLength" : 2160,
            "byteOffset" : 259268
        },
        {
            "buffer" : 0,
            "byteLength" : 1440,
            "byteOffset" : 261428
        },
        {
            "buffer" : 0,
            "byteLength" : 756,
            "byteOffset" : 262868
        },
        {
            "buffer" : 0,
            "byteLength" : 288,
            "byteOffset" : 263624
        },
        {
            "buffer" : 0,
            "byteLength" : 288,
            "byteOffset" : 263912
        },
        {
            "buffer" : 0,
            "byteLength" : 192,
            "byteOffset" : 264200
        },
        {
            "buffer" : 0,
            "byteLength" : 96,
            "byteOffset" : 264392
        },
        {
            "buffer" : 0,
            "byteLength" : 96,
            "byteOffset" : 264488
        },
        {
            "buffer" : 0,
            "byteLength" : 96,
            "byteOffset" : 264584
        },
        {
            "buffer" : 0,
            "byteLength" : 64,
            "byteOffset" : 264680
        },
        {
            "buffer" : 0,
            "byteLength" : 24,
            "byteOffset" : 264744
        }
    ],
    "buffers" : [
        {
            "byteLength" : 264768,
            "uri" : "data:application/octet-stream;base64,"
        }
    ]
}
