{
    "asset" : {
        "generator" : "Khronos glTF Blender I/O v1.8.19",
        "version" : "2.0"
    },
    "scene" : 0,
    "scenes" : [
        {
            "name" : "Scene",
            "nodes" : [
                0
            ]
        }
    ],
    "nodes" : [
        {
            "mesh" : 0,
            "name" : "Cube",
            "rotation" : [
                0,
                0.9999953508377075,
                0,
                -0.0030522255692631006
            ],
            "scale" : [
                4.313362121582031,
                14.167217254638672,
                15.64112377166748
            ],
            "translation" : [
                -5.457954406738281,
                13.571115493774414,
                50.02801513671875
            ]
        }
    ],
    "materials" : [
        {
            "doubleSided" : true,
            "name" : "Material",
            "pbrMetallicRoughness" : {
                "baseColorFactor" : [
                    0.800000011920929,
                    0.800000011920929,
                    0.800000011920929,
                    1
                ],
                "metallicFactor" : 0,
                "roughnessFactor" : 0.4000000059604645
            }
        },
        {
            "doubleSided" : true,
            "name" : "Material.001",
            "pbrMetallicRoughness" : {}
        },
        {
            "doubleSided" : true,
            "name" : "Material.002",
            "pbrMetallicRoughness" : {
                "baseColorFactor" : [
                    0.8000000715255737,
                    0.025876419618725777,
                    0.0291008148342371,
                    1
                ],
                "metallicFactor" : 0,
                "roughnessFactor" : 0.5
            }
        },
        {
            "doubleSided" : true,
            "name" : "Material.003",
            "pbrMetallicRoughness" : {}
        },
        {
            "doubleSided" : true,
            "name" : "Material.004",
            "pbrMetallicRoughness" : {
                "metallicFactor" : 0,
                "roughnessFactor" : 0.5
            }
        },
        {
            "doubleSided" : true,
            "name" : "Material.005",
            "pbrMetallicRoughness" : {}
        },
        {
            "doubleSided" : true,
            "name" : "Material.006",
            "pbrMetallicRoughness" : {
                "baseColorFactor" : [
                    0.19470231235027313,
                    0.3760693073272705,
                    0.8000000715255737,
                    1
                ],
                "metallicFactor" : 0,
                "roughnessFactor" : 0.5
            }
        },
        {
            "doubleSided" : true,
            "name" : "top.001",
            "pbrMetallicRoughness" : {
                "baseColorTexture" : {
                    "index" : 0
                },
                "metallicFactor" : 0,
                "roughnessFactor" : 0.5
            }
        },
        {
            "doubleSided" : true,
            "name" : "bottom",
            "pbrMetallicRoughness" : {
                "baseColorTexture" : {
                    "index" : 1
                },
                "metallicFactor" : 0,
                "roughnessFactor" : 0.5
            }
        },
        {
            "doubleSided" : true,
            "name" : "brick",
            "pbrMetallicRoughness" : {
                "baseColorTexture" : {
                    "index" : 2
                },
                "metallicFactor" : 0,
                "roughnessFactor" : 0.5
            }
        }
    ],
    "meshes" : [
        {
            "name" : "Cube",
            "primitives" : [
                {
                    "attributes" : {
                        "POSITION" : 0,
                        "NORMAL" : 1,
                        "TEXCOORD_0" : 2
                    },
                    "indices" : 3,
                    "material" : 0
                },
                {
                    "attributes" : {
                        "POSITION" : 4,
                        "NORMAL" : 5,
                        "TEXCOORD_0" : 6
                    },
                    "indices" : 7,
                    "material" : 1
                },
                {
                    "attributes" : {
                        "POSITION" : 8,
                        "NORMAL" : 9,
                        "TEXCOORD_0" : 10
                    },
                    "indices" : 11,
                    "material" : 2
                },
                {
                    "attributes" : {
                        "POSITION" : 12,
                        "NORMAL" : 13,
                        "TEXCOORD_0" : 14
                    },
                    "indices" : 15,
                    "material" : 3
                },
                {
                    "attributes" : {
                        "POSITION" : 16,
                        "NORMAL" : 17,
                        "TEXCOORD_0" : 18
                    },
                    "indices" : 19,
                    "material" : 4
                },
                {
                    "attributes" : {
                        "POSITION" : 20,
                        "NORMAL" : 21,
                        "TEXCOORD_0" : 22
                    },
                    "indices" : 23,
                    "material" : 5
                },
                {
                    "attributes" : {
                        "POSITION" : 24,
                        "NORMAL" : 25,
                        "TEXCOORD_0" : 26
                    },
                    "indices" : 27,
                    "material" : 6
                },
                {
                    "attributes" : {
                        "POSITION" : 28,
                        "NORMAL" : 29,
                        "TEXCOORD_0" : 30
                    },
                    "indices" : 31,
                    "material" : 7
                },
                {
                    "attributes" : {
                        "POSITION" : 32,
                        "NORMAL" : 33,
                        "TEXCOORD_0" : 34
                    },
                    "indices" : 35,
                    "material" : 8
                },
                {
                    "attributes" : {
                        "POSITION" : 36,
                        "NORMAL" : 37,
                        "TEXCOORD_0" : 38
                    },
                    "indices" : 39,
                    "material" : 9
                }
            ]
        }
    ],
    "textures" : [
        {
            "sampler" : 0,
            "source" : 0
        },
        {
            "sampler" : 0,
            "source" : 1
        },
        {
            "sampler" : 0,
            "source" : 2
        }
    ],
    "images" : [
        {
            "bufferView" : 32,
            "mimeType" : "image/png",
            "name" : "landau_texture"
        },
        {
            "bufferView" : 37,
            "mimeType" : "image/png",
            "name" : "landau_bricks"
        },
        {
            "bufferView" : 42,
            "mimeType" : "image/png",
            "name" : "bricksss"
        }
    ],
    "accessors" : [
        {
            "bufferView" : 0,
            "componentType" : 5126,
            "count" : 3860,
            "max" : [
                1,
                1.9136269092559814,
                3.682023763656616
            ],
            "min" : [
                -2.406606912612915,
                -1,
                -1
            ],
            "type" : "VEC3"
        },
        {
            "bufferView" : 1,
            "componentType" : 5126,
            "count" : 3860,
            "type" : "VEC3"
        },
        {
            "bufferView" : 2,
            "componentType" : 5126,
            "count" : 3860,
            "type" : "VEC2"
        },
        {
            "bufferView" : 3,
            "componentType" : 5123,
            "count" : 8484,
            "type" : "SCALAR"
        },
        {
            "bufferView" : 4,
            "componentType" : 5126,
            "count" : 394,
            "max" : [
                -0.5942723751068115,
                1.6994436979293823,
                3.461460828781128
            ],
            "min" : [
                -1,
                0.28001031279563904,
                -0.8629512786865234
            ],
            "type" : "VEC3"
        },
        {
            "bufferView" : 5,
            "componentType" : 5126,
            "count" : 394,
            "type" : "VEC3"
        },
        {
            "bufferView" : 6,
            "componentType" : 5126,
            "count" : 394,
            "type" : "VEC2"
        },
        {
            "bufferView" : 7,
            "componentType" : 5123,
            "count" : 900,
            "type" : "SCALAR"
        },
        {
            "bufferView" : 8,
            "componentType" : 5126,
            "count" : 44,
            "max" : [
                0.5552774667739868,
                -0.293291300535202,
                2.0468599796295166
            ],
            "min" : [
                -1.4361644983291626,
                -0.9068898558616638,
                -0.9129512906074524
            ],
            "type" : "VEC3"
        },
        {
            "bufferView" : 9,
            "componentType" : 5126,
            "count" : 44,
            "type" : "VEC3"
        },
        {
            "bufferView" : 10,
            "componentType" : 5126,
            "count" : 44,
            "type" : "VEC2"
        },
        {
            "bufferView" : 11,
            "componentType" : 5123,
            "count" : 96,
            "type" : "SCALAR"
        },
        {
            "bufferView" : 12,
            "componentType" : 5126,
            "count" : 50,
            "max" : [
                -1,
                -0.36695581674575806,
                3.511460781097412
            ],
            "min" : [
                -1,
                -0.9068898558616638,
                -0.9129512906074524
            ],
            "type" : "VEC3"
        },
        {
            "bufferView" : 13,
            "componentType" : 5126,
            "count" : 50,
            "type" : "VEC3"
        },
        {
            "bufferView" : 14,
            "componentType" : 5126,
            "count" : 50,
            "type" : "VEC2"
        },
        {
            "bufferView" : 15,
            "componentType" : 5123,
            "count" : 114,
            "type" : "SCALAR"
        },
        {
            "bufferView" : 16,
            "componentType" : 5126,
            "count" : 172,
            "max" : [
                -0.8499858975410461,
                0.9187737703323364,
                2.9153854846954346
            ],
            "min" : [
                -1.4346308708190918,
                0.7232272624969482,
                -0.9896404147148132
            ],
            "type" : "VEC3"
        },
        {
            "bufferView" : 17,
            "componentType" : 5126,
            "count" : 172,
            "type" : "VEC3"
        },
        {
            "bufferView" : 18,
            "componentType" : 5126,
            "count" : 172,
            "type" : "VEC2"
        },
        {
            "bufferView" : 19,
            "componentType" : 5123,
            "count" : 366,
            "type" : "SCALAR"
        },
        {
            "bufferView" : 20,
            "componentType" : 5126,
            "count" : 24,
            "max" : [
                -1,
                -0.36695581674575806,
                1.7589613199234009
            ],
            "min" : [
                -1,
                -0.9068898558616638,
                0.9227315783500671
            ],
            "type" : "VEC3"
        },
        {
            "bufferView" : 21,
            "componentType" : 5126,
            "count" : 24,
            "type" : "VEC3"
        },
        {
            "bufferView" : 22,
            "componentType" : 5126,
            "count" : 24,
            "type" : "VEC2"
        },
        {
            "bufferView" : 23,
            "componentType" : 5123,
            "count" : 48,
            "type" : "SCALAR"
        },
        {
            "bufferView" : 24,
            "componentType" : 5126,
            "count" : 8,
            "max" : [
                -0.1337207555770874,
                -0.36695581674575806,
                1.477590799331665
            ],
            "min" : [
                -0.1337207555770874,
                -0.9068898558616638,
                1.2595046758651733
            ],
            "type" : "VEC3"
        },
        {
            "bufferView" : 25,
            "componentType" : 5126,
            "count" : 8,
            "type" : "VEC3"
        },
        {
            "bufferView" : 26,
            "componentType" : 5126,
            "count" : 8,
            "type" : "VEC2"
        },
        {
            "bufferView" : 27,
            "componentType" : 5123,
            "count" : 12,
            "type" : "SCALAR"
        },
        {
            "bufferView" : 28,
            "componentType" : 5126,
            "count" : 1477,
            "max" : [
                1,
                1.9089834690093994,
                3.682023763656616
            ],
            "min" : [
                -1.4986870288848877,
                0.25001031160354614,
                -0.9581325054168701
            ],
            "type" : "VEC3"
        },
        {
            "bufferView" : 29,
            "componentType" : 5126,
            "count" : 1477,
            "type" : "VEC3"
        },
        {
            "bufferView" : 30,
            "componentType" : 5126,
            "count" : 1477,
            "type" : "VEC2"
        },
        {
            "bufferView" : 31,
            "componentType" : 5123,
            "count" : 4566,
            "type" : "SCALAR"
        },
        {
            "bufferView" : 33,
            "componentType" : 5126,
            "count" : 1569,
            "max" : [
                1,
                1.8665111064910889,
                3.682023763656616
            ],
            "min" : [
                -1.9686012268066406,
                -1,
                -0.9581324458122253
            ],
            "type" : "VEC3"
        },
        {
            "bufferView" : 34,
            "componentType" : 5126,
            "count" : 1569,
            "type" : "VEC3"
        },
        {
            "bufferView" : 35,
            "componentType" : 5126,
            "count" : 1569,
            "type" : "VEC2"
        },
        {
            "bufferView" : 36,
            "componentType" : 5123,
            "count" : 4698,
            "type" : "SCALAR"
        },
        {
            "bufferView" : 38,
            "componentType" : 5126,
            "count" : 304,
            "max" : [
                1,
                -0.906889796257019,
                3.682023763656616
            ],
            "min" : [
                -1.9920250177383423,
                -1,
                -0.9581324458122253
            ],
            "type" : "VEC3"
        },
        {
            "bufferView" : 39,
            "componentType" : 5126,
            "count" : 304,
            "type" : "VEC3"
        },
        {
            "bufferView" : 40,
            "componentType" : 5126,
            "count" : 304,
            "type" : "VEC2"
        },
        {
            "bufferView" : 41,
            "componentType" : 5123,
            "count" : 636,
            "type" : "SCALAR"
        }
    ],
    "bufferViews" : [
        {
            "buffer" : 0,
            "byteLength" : 46320,
            "byteOffset" : 0
        },
        {
            "buffer" : 0,
            "byteLength" : 46320,
            "byteOffset" : 46320
        },
        {
            "buffer" : 0,
            "byteLength" : 30880,
            "byteOffset" : 92640
        },
        {
            "buffer" : 0,
            "byteLength" : 16968,
            "byteOffset" : 123520
        },
        {
            "buffer" : 0,
            "byteLength" : 4728,
            "byteOffset" : 140488
        },
        {
            "buffer" : 0,
            "byteLength" : 4728,
            "byteOffset" : 145216
        },
        {
            "buffer" : 0,
            "byteLength" : 3152,
            "byteOffset" : 149944
        },
        {
            "buffer" : 0,
            "byteLength" : 1800,
            "byteOffset" : 153096
        },
        {
            "buffer" : 0,
            "byteLength" : 528,
            "byteOffset" : 154896
        },
        {
            "buffer" : 0,
            "byteLength" : 528,
            "byteOffset" : 155424
        },
        {
            "buffer" : 0,
            "byteLength" : 352,
            "byteOffset" : 155952
        },
        {
            "buffer" : 0,
            "byteLength" : 192,
            "byteOffset" : 156304
        },
        {
            "buffer" : 0,
            "byteLength" : 600,
            "byteOffset" : 156496
        },
        {
            "buffer" : 0,
            "byteLength" : 600,
            "byteOffset" : 157096
        },
        {
            "buffer" : 0,
            "byteLength" : 400,
            "byteOffset" : 157696
        },
        {
            "buffer" : 0,
            "byteLength" : 228,
            "byteOffset" : 158096
        },
        {
            "buffer" : 0,
            "byteLength" : 2064,
            "byteOffset" : 158324
        },
        {
            "buffer" : 0,
            "byteLength" : 2064,
            "byteOffset" : 160388
        },
        {
            "buffer" : 0,
            "byteLength" : 1376,
            "byteOffset" : 162452
        },
        {
            "buffer" : 0,
            "byteLength" : 732,
            "byteOffset" : 163828
        },
        {
            "buffer" : 0,
            "byteLength" : 288,
            "byteOffset" : 164560
        },
        {
            "buffer" : 0,
            "byteLength" : 288,
            "byteOffset" : 164848
        },
        {
            "buffer" : 0,
            "byteLength" : 192,
            "byteOffset" : 165136
        },
        {
            "buffer" : 0,
            "byteLength" : 96,
            "byteOffset" : 165328
        },
        {
            "buffer" : 0,
            "byteLength" : 96,
            "byteOffset" : 165424
        },
        {
            "buffer" : 0,
            "byteLength" : 96,
            "byteOffset" : 165520
        },
        {
            "buffer" : 0,
            "byteLength" : 64,
            "byteOffset" : 165616
        },
        {
            "buffer" : 0,
            "byteLength" : 24,
            "byteOffset" : 165680
        },
        {
            "buffer" : 0,
            "byteLength" : 17724,
            "byteOffset" : 165704
        },
        {
            "buffer" : 0,
            "byteLength" : 17724,
            "byteOffset" : 183428
        },
        {
            "buffer" : 0,
            "byteLength" : 11816,
            "byteOffset" : 201152
        },
        {
            "buffer" : 0,
            "byteLength" : 9132,
            "byteOffset" : 212968
        },
        {
            "buffer" : 0,
            "byteLength" : 391437,
            "byteOffset" : 222100
        },
        {
            "buffer" : 0,
            "byteLength" : 18828,
            "byteOffset" : 613540
        },
        {
            "buffer" : 0,
            "byteLength" : 18828,
            "byteOffset" : 632368
        },
        {
            "buffer" : 0,
            "byteLength" : 12552,
            "byteOffset" : 651196
        },
        {
            "buffer" : 0,
            "byteLength" : 9396,
            "byteOffset" : 663748
        },
        {
            "buffer" : 0,
            "byteLength" : 164729,
            "byteOffset" : 673144
        },
        {
            "buffer" : 0,
            "byteLength" : 3648,
            "byteOffset" : 837876
        },
        {
            "buffer" : 0,
            "byteLength" : 3648,
            "byteOffset" : 841524
        },
        {
            "buffer" : 0,
            "byteLength" : 2432,
            "byteOffset" : 845172
        },
        {
            "buffer" : 0,
            "byteLength" : 1272,
            "byteOffset" : 847604
        },
        {
            "buffer" : 0,
            "byteLength" : 505766,
            "byteOffset" : 848876
        }
    ],
    "samplers" : [
        {
            "magFilter" : 9729,
            "minFilter" : 9987
        }
    ],
    "buffers" : [
        {
            "byteLength" : 1354644,
            "uri" : "data:application/octet-stream;base64,"
        }
    ]
}
